<svg data-v-423bf9ae="" xmlns="http://www.w3.org/2000/svg" viewBox="0 0 642 90" class="iconLeft"><!----><!----><!----><g data-v-423bf9ae="" id="a8a212eb-489e-4d02-8483-3971e4b28724" fill="white" transform="matrix(5.628517904206723,0,0,5.628517904206723,107.5234628889798,-17.02626767383979)"><path d="M12.91 16.19L11.59 13.78L3.28 13.78L1.97 16.19L0.44 16.19L6.56 5.69L8.31 5.69L14.44 16.19L12.91 16.19ZM3.94 12.69L10.94 12.69L7.44 6.56L3.94 12.69ZM20.56 16.34L20.56 16.34Q19.62 16.34 18.99 16.21Q18.37 16.08 17.97 15.94Q17.58 15.79 17.37 15.47Q17.17 15.16 17.06 14.98L17.06 14.98L17.06 16.19L15.75 16.19L15.75 5.69L17.06 5.69L17.06 9.06Q17.15 8.91 17.36 8.75Q17.57 8.58 17.97 8.43Q18.37 8.29 19.00 8.19Q19.63 8.09 20.56 8.09L20.56 8.09Q21.88 8.09 22.79 8.29Q23.71 8.49 24.28 8.97Q24.86 9.45 25.12 10.25Q25.38 11.05 25.38 12.26L25.38 12.26Q25.38 13.45 25.12 14.24Q24.86 15.03 24.28 15.49Q23.71 15.96 22.79 16.15Q21.88 16.34 20.56 16.34ZM20.56 15.31L20.56 15.31Q21.33 15.31 21.89 15.26Q22.44 15.22 22.83 15.09Q23.22 14.97 23.46 14.75Q23.71 14.53 23.84 14.19Q23.97 13.86 24.02 13.38Q24.06 12.91 24.06 12.26L24.06 12.26Q24.06 11.62 24.02 11.14Q23.97 10.66 23.84 10.33Q23.71 9.99 23.46 9.77Q23.22 9.54 22.83 9.42Q22.44 9.29 21.89 9.24Q21.33 9.19 20.56 9.19L20.56 9.19Q19.91 9.19 19.39 9.23Q18.88 9.26 18.49 9.37Q18.10 9.47 17.83 9.68Q17.56 9.88 17.39 10.23Q17.22 10.57 17.14 11.07Q17.06 11.58 17.06 12.28L17.06 12.28Q17.06 12.98 17.14 13.48Q17.22 13.97 17.39 14.31Q17.56 14.64 17.83 14.84Q18.10 15.05 18.49 15.15Q18.88 15.25 19.39 15.28Q19.91 15.31 20.56 15.31ZM31.50 16.34L31.50 16.34Q30.19 16.34 29.27 16.16Q28.36 15.98 27.78 15.53Q27.21 15.09 26.95 14.34Q26.69 13.60 26.69 12.47L26.69 12.47Q26.69 11.18 26.95 10.33Q27.21 9.49 27.78 8.99Q28.36 8.49 29.27 8.29Q30.19 8.09 31.50 8.09L31.50 8.09Q32.44 8.09 33.12 8.23Q33.81 8.37 34.30 8.63Q34.79 8.89 35.09 9.26Q35.40 9.63 35.57 10.03Q35.75 10.44 35.81 10.99Q35.88 11.53 35.88 12.14L35.88 12.14L35.77 12.58L28 12.58Q28 13.48 28.18 14.06Q28.36 14.64 28.77 14.90Q29.18 15.17 29.85 15.24Q30.52 15.31 31.50 15.31L31.50 15.31Q32.40 15.31 32.99 15.26Q33.58 15.21 33.93 15.07Q34.28 14.92 34.42 14.67Q34.56 14.41 34.56 14L34.56 14L35.88 14Q35.88 14.64 35.65 15.08Q35.43 15.53 34.92 15.81Q34.41 16.08 33.57 16.21Q32.73 16.34 31.50 16.34ZM31.50 9.19L31.50 9.19Q30.84 9.19 30.33 9.21Q29.81 9.24 29.43 9.33Q29.04 9.43 28.77 9.60Q28.49 9.78 28.32 10.01Q28.16 10.25 28.08 10.67Q28 11.10 28 11.70L28 11.70L34.56 11.70Q34.56 10.90 34.39 10.45Q34.22 9.99 33.85 9.70Q33.48 9.41 32.90 9.30Q32.32 9.19 31.50 9.19ZM48.77 16.19L42.44 6.56L42.44 16.19L41.13 16.19L41.13 5.69L43.31 5.69L49.43 14.88L55.55 5.69L57.64 5.69L57.64 16.19L56.33 16.19L56.33 6.71L50.09 16.19L48.77 16.19ZM64.42 16.34L64.42 16.34Q63.11 16.34 62.19 16.16Q61.28 15.98 60.70 15.53Q60.13 15.09 59.87 14.34Q59.61 13.60 59.61 12.47L59.61 12.47Q59.61 11.18 59.87 10.33Q60.13 9.49 60.70 8.99Q61.28 8.49 62.19 8.29Q63.11 8.09 64.42 8.09L64.42 8.09Q65.36 8.09 66.05 8.23Q66.73 8.37 67.22 8.63Q67.71 8.89 68.01 9.26Q68.32 9.63 68.49 10.03Q68.67 10.44 68.73 10.99Q68.80 11.53 68.80 12.14L68.80 12.14L68.69 12.58L60.92 12.58Q60.92 13.48 61.10 14.06Q61.28 14.64 61.69 14.90Q62.10 15.17 62.77 15.24Q63.44 15.31 64.42 15.31L64.42 15.31Q65.32 15.31 65.92 15.26Q66.51 15.21 66.86 15.07Q67.20 14.92 67.34 14.67Q67.48 14.41 67.48 14L67.48 14L68.80 14Q68.80 14.64 68.57 15.08Q68.35 15.53 67.84 15.81Q67.33 16.08 66.49 16.21Q65.65 16.34 64.42 16.34ZM64.42 9.19L64.42 9.19Q63.77 9.19 63.25 9.21Q62.73 9.24 62.35 9.33Q61.96 9.43 61.69 9.60Q61.41 9.78 61.25 10.01Q61.08 10.25 61.00 10.67Q60.92 11.10 60.92 11.70L60.92 11.70L67.48 11.70Q67.48 10.90 67.31 10.45Q67.14 9.99 66.77 9.70Q66.40 9.41 65.82 9.30Q65.24 9.19 64.42 9.19ZM75.14 16.34L75.14 16.34Q73.83 16.34 72.91 16.15Q72.00 15.96 71.42 15.49Q70.85 15.03 70.59 14.24Q70.33 13.45 70.33 12.26L70.33 12.26Q70.33 11.03 70.59 10.23Q70.85 9.42 71.42 8.95Q72.00 8.48 72.91 8.29Q73.83 8.09 75.14 8.09L75.14 8.09Q76.07 8.09 76.70 8.19Q77.33 8.29 77.73 8.43Q78.13 8.57 78.34 8.74Q78.54 8.91 78.64 9.05L78.64 9.05L78.64 5.69L79.95 5.69L79.95 16.19L78.64 16.19L78.64 15.02Q78.64 15.02 78.31 15.41L78.31 15.41Q78.03 15.69 77.68 15.86Q77.33 16.03 76.70 16.18Q76.07 16.34 75.14 16.34ZM75.14 15.31L75.14 15.31Q75.80 15.31 76.31 15.28Q76.82 15.25 77.21 15.15Q77.60 15.05 77.87 14.84Q78.14 14.64 78.31 14.31Q78.48 13.97 78.56 13.48Q78.64 12.98 78.64 12.28L78.64 12.28Q78.64 11.56 78.56 11.05Q78.48 10.54 78.31 10.20Q78.14 9.85 77.87 9.65Q77.60 9.45 77.21 9.35Q76.82 9.24 76.31 9.21Q75.80 9.19 75.14 9.19L75.14 9.19Q74.38 9.19 73.82 9.24Q73.26 9.28 72.87 9.41Q72.48 9.53 72.24 9.75Q72.00 9.97 71.86 10.31Q71.73 10.65 71.69 11.13Q71.64 11.61 71.64 12.26L71.64 12.26Q71.64 12.91 71.69 13.38Q71.73 13.86 71.86 14.19Q72.00 14.53 72.24 14.75Q72.48 14.97 72.87 15.09Q73.26 15.22 73.82 15.26Q74.38 15.31 75.14 15.31ZM82.14 16.19L82.14 8.31L83.45 8.31L83.45 16.19L82.14 16.19ZM83.45 5.69L83.45 7L82.14 7L82.14 5.69L83.45 5.69ZM93.48 16.19L93.48 15.11Q93.46 15.19 93.17 15.52L93.17 15.52Q92.97 15.76 92.63 15.95Q92.29 16.14 91.71 16.25Q91.14 16.35 90.21 16.35L90.21 16.35Q88.98 16.35 88.10 16.23Q87.23 16.10 86.67 15.84Q86.12 15.57 85.86 15.16Q85.61 14.75 85.61 14.18L85.61 14.18Q85.61 13.59 85.75 13.18Q85.89 12.76 86.16 12.48Q86.43 12.20 86.81 12.04Q87.19 11.89 87.68 11.81Q88.17 11.72 88.75 11.70Q89.33 11.68 89.99 11.68L89.99 11.68Q90.92 11.68 91.55 11.76Q92.18 11.84 92.58 11.96Q92.98 12.08 93.19 12.22Q93.39 12.35 93.48 12.47L93.48 12.47Q93.48 11.70 93.42 11.16Q93.35 10.62 93.20 10.26Q93.06 9.90 92.83 9.68Q92.59 9.47 92.25 9.36Q91.92 9.25 91.46 9.22Q91.01 9.19 90.43 9.19L90.43 9.19Q89.53 9.19 88.94 9.23Q88.34 9.28 87.99 9.41Q87.64 9.54 87.50 9.77Q87.36 9.99 87.36 10.36L87.36 10.36L86.04 10.36Q86.04 9.74 86.27 9.31Q86.49 8.88 87.00 8.61Q87.52 8.34 88.36 8.22Q89.20 8.09 90.43 8.09L90.43 8.09Q91.64 8.09 92.47 8.29Q93.30 8.49 93.82 8.99Q94.34 9.49 94.56 10.33Q94.79 11.18 94.79 12.47L94.79 12.47L94.79 16.19L93.48 16.19ZM90.43 15.31L90.43 15.31Q91.30 15.31 91.89 15.23Q92.47 15.15 92.83 14.98Q93.18 14.82 93.33 14.57Q93.48 14.33 93.48 14L93.48 14Q93.48 13.67 93.31 13.44Q93.13 13.21 92.73 13.07Q92.32 12.93 91.65 12.86Q90.98 12.80 90.00 12.80L90.00 12.80Q89.01 12.80 88.41 12.83Q87.80 12.87 87.47 12.99Q87.14 13.11 87.03 13.35Q86.92 13.59 86.92 14L86.92 14Q86.92 14.41 87.04 14.67Q87.16 14.92 87.53 15.07Q87.90 15.21 88.59 15.26Q89.28 15.31 90.43 15.31Z"></path></g><!----><g data-v-423bf9ae="" id="a45a08de-60e7-447c-bb23-be0c5c8ece95" transform="matrix(2.8125,0,0,2.8125,0,0)" stroke="none" fill="white"><path d="M16 32c8.837 0 16-7.163 16-16S24.837 0 16 0 0 7.163 0 16s7.163 16 16 16zM14.817 6.421h2v8.886h8.887v2H14.817V6.421zm-5.959.437h2v14.283h14.283v2H8.858V6.858z"></path></g><!----></svg>