<svg data-v-423bf9ae="" xmlns="http://www.w3.org/2000/svg" viewBox="0 0 465 90" class="iconLeft"><!----><!----><!----><g data-v-423bf9ae="" id="bd5eadb8-0d06-4c5b-9c4b-4651c1f39f49" fill="white" transform="matrix(4.784689009770447,0,0,4.784689009770447,113.02242330818618,4.617225914266804)"><path d="M0.99 12.29L0.99 2.69L4.83 2.69Q7.06 2.69 8.27 3.88Q9.49 5.08 9.49 7.49L9.49 7.49Q9.49 9.90 8.27 11.09Q7.06 12.29 4.83 12.29L4.83 12.29L0.99 12.29ZM2.79 10.77L4.83 10.77Q6.20 10.77 6.92 9.98Q7.64 9.20 7.66 7.63L7.66 7.63L7.66 7.35Q7.66 5.80 6.93 5.00Q6.20 4.21 4.83 4.21L4.83 4.21L2.79 4.21L2.79 10.77ZM11.09 3.78L11.09 2.17L12.77 2.17L12.77 3.78L11.09 3.78ZM11.09 12.29L11.09 4.93L12.77 4.93L12.77 12.29L11.09 12.29ZM17.50 12.46Q15.97 12.46 15.14 11.83Q14.31 11.20 14.31 10.19L14.31 10.19Q14.31 10.07 14.31 10.02Q14.32 9.98 14.32 9.97L14.32 9.97L15.96 9.97L15.96 10.08Q15.97 10.63 16.43 10.88Q16.88 11.14 17.57 11.14L17.57 11.14Q18.19 11.14 18.62 10.94Q19.05 10.74 19.05 10.33L19.05 10.33Q19.05 10.01 18.82 9.81Q18.58 9.60 18.23 9.48Q17.88 9.37 17.23 9.21L17.23 9.21Q16.37 9.00 15.81 8.79Q15.26 8.58 14.87 8.13Q14.48 7.69 14.48 6.96L14.48 6.96Q14.48 5.91 15.34 5.33Q16.21 4.76 17.60 4.76L17.60 4.76Q18.45 4.76 19.12 5.01Q19.80 5.26 20.17 5.72Q20.54 6.17 20.54 6.76L20.54 6.76L20.52 7.07L18.89 7.07L18.89 7.01Q18.89 6.58 18.53 6.33Q18.17 6.09 17.50 6.09L17.50 6.09Q16.84 6.09 16.51 6.29Q16.17 6.50 16.17 6.82L16.17 6.82Q16.17 7.21 16.58 7.40Q17.00 7.59 17.85 7.77L17.85 7.77Q18.77 7.98 19.34 8.20Q19.91 8.41 20.33 8.88Q20.75 9.34 20.75 10.12L20.75 10.12Q20.75 11.34 19.87 11.90Q19.00 12.46 17.50 12.46L17.50 12.46ZM22.23 14.71L22.23 4.93L23.62 4.93L23.76 5.91L23.84 5.91Q24.21 5.35 24.79 5.05Q25.38 4.76 26.10 4.76L26.10 4.76Q27.50 4.76 28.27 5.71Q29.04 6.66 29.04 8.62L29.04 8.62Q29.04 10.53 28.27 11.49Q27.50 12.46 26.21 12.46L26.21 12.46Q24.67 12.46 24.00 11.44L24.00 11.44L23.91 11.44L23.91 14.71L22.23 14.71ZM25.59 11.02Q26.52 11.02 26.91 10.46Q27.30 9.91 27.30 8.71L27.30 8.71L27.30 8.53Q27.30 7.31 26.91 6.75Q26.52 6.20 25.59 6.20L25.59 6.20Q24.72 6.20 24.32 6.79Q23.91 7.38 23.91 8.53L23.91 8.53L23.91 8.69Q23.91 9.84 24.32 10.43Q24.72 11.02 25.59 11.02L25.59 11.02ZM32.31 12.46Q31.42 12.46 30.70 12.02Q29.97 11.58 29.97 10.39L29.97 10.39Q29.97 8.97 31.18 8.40Q32.38 7.83 34.59 7.83L34.59 7.83L34.59 7.21Q34.59 6.68 34.32 6.38Q34.05 6.09 33.33 6.09L33.33 6.09Q32.59 6.09 32.28 6.33Q31.98 6.57 31.98 6.92L31.98 6.92L31.98 7.11L30.35 7.11Q30.34 7.03 30.34 6.80L30.34 6.80Q30.34 5.85 31.16 5.31Q31.98 4.76 33.33 4.76L33.33 4.76Q34.80 4.76 35.54 5.36Q36.27 5.96 36.27 7.08L36.27 7.08L36.27 10.60Q36.27 10.85 36.41 10.97Q36.55 11.09 36.76 11.09L36.76 11.09L37.21 11.09L37.21 12.24Q36.76 12.45 36.16 12.45L36.16 12.45Q35.62 12.45 35.25 12.18Q34.89 11.91 34.76 11.45L34.76 11.45L34.66 11.45Q33.84 12.46 32.31 12.46L32.31 12.46ZM32.82 11.12Q33.64 11.12 34.12 10.64Q34.59 10.16 34.59 9.35L34.59 9.35L34.59 9.02Q33.24 9.02 32.47 9.28Q31.70 9.53 31.70 10.22L31.70 10.22Q31.70 11.12 32.82 11.12L32.82 11.12ZM40.17 12.46Q39.23 12.46 38.81 11.94Q38.40 11.41 38.40 10.63L38.40 10.63L38.40 6.30L37.51 6.30L37.51 4.93L38.43 4.93L38.74 2.87L40.08 2.87L40.08 4.93L41.34 4.93L41.34 6.30L40.08 6.30L40.08 10.46Q40.08 11.09 40.68 11.09L40.68 11.09L41.34 11.09L41.34 12.24Q41.12 12.32 40.78 12.39Q40.45 12.46 40.17 12.46L40.17 12.46ZM45.65 12.46Q43.92 12.46 43.08 11.52Q42.24 10.58 42.24 8.61L42.24 8.61Q42.24 6.64 43.09 5.70Q43.93 4.76 45.65 4.76L45.65 4.76Q47.15 4.76 47.96 5.50Q48.78 6.24 48.78 7.69L48.78 7.69L47.07 7.69Q47.07 6.90 46.72 6.51Q46.37 6.12 45.63 6.12L45.63 6.12Q44.76 6.12 44.35 6.71Q43.95 7.31 43.95 8.54L43.95 8.54L43.95 8.71Q43.95 9.94 44.36 10.52Q44.77 11.10 45.70 11.10L45.70 11.10Q46.41 11.10 46.78 10.70Q47.15 10.29 47.15 9.53L47.15 9.53L48.78 9.53Q48.78 10.92 47.96 11.69Q47.14 12.46 45.65 12.46L45.65 12.46ZM50.22 12.29L50.22 2.17L51.90 2.17L51.90 5.77L52.00 5.77Q52.36 5.31 52.92 5.03Q53.48 4.76 54.21 4.76L54.21 4.76Q55.33 4.76 55.96 5.37Q56.59 5.98 56.59 7.32L56.59 7.32L56.59 12.29L54.91 12.29L54.91 7.62Q54.91 6.86 54.56 6.54Q54.22 6.22 53.55 6.22L53.55 6.22Q52.85 6.22 52.37 6.72Q51.90 7.22 51.90 8.01L51.90 8.01L51.90 12.29L50.22 12.29ZM60.87 12.29L64.61 2.69L66.86 2.69L70.60 12.29L68.67 12.29L67.89 10.21L63.49 10.21L62.72 12.29L60.87 12.29ZM64.05 8.69L67.31 8.69L66.33 6.06Q66.11 5.50 65.86 4.63L65.86 4.63Q65.81 4.51 65.78 4.40Q65.74 4.30 65.72 4.23L65.72 4.23L65.65 4.23L65.51 4.66L65.03 6.06L64.05 8.69ZM71.72 12.29L71.72 2.69L73.50 2.69L73.50 12.29L71.72 12.29Z"></path></g><!----><g data-v-423bf9ae="" id="9443f22b-8955-46a6-b274-873b955f2526" transform="matrix(1.2190497606487611,0,0,1.2190497606487611,-10.938263251657837,-14.703073870927923)" stroke="none" fill="white"><path d="M55.894 49.046v1.992c0 2.509 1.142 3.675 3.328 3.675h2.757c2.606 0 4.379 2.119 4.379 4.375v2.318c0 2.509-1.137 4.021-3.795 4.021h-3.196c-2.796 0-4.253-1.278-4.253-3.889V59.38c0-2.059-1.479-3.41-3.281-3.41h-4.759c-2.38 0-2.959 1.608-2.959 3.41v4.249c0 2.252 1.351 3.024 3.088 3.024h2.931c3.31 0 4.9 1.452 4.9 3.77v1.601c0 2.634 1.498 3.632 3.881 3.632h4.915c2.433 0 3.622-1.284 3.622-3.479v-1.796c0-3.023 1.676-3.988 4.893-3.988h3.384c1.866 0 2.725-1.158 2.725-2.702v-6.24c0-2.058-1.158-3.023-3.409-3.023h-4.054c-2.419 0-4.588-1.829-4.588-5.21v-1.992c0-2.509-1.142-3.675-3.329-3.675h-2.757c-2.606 0-4.379-2.118-4.379-4.374v-2.318c0-2.509 1.138-4.021 3.796-4.021h3.195c2.796 0 4.254 1.278 4.254 3.889v2.158c0 2.059 1.479 3.409 3.281 3.409h4.758c2.38 0 2.959-1.608 2.959-3.409v-4.249c0-2.251-1.351-3.023-3.088-3.023h-2.931c-3.31 0-4.9-1.452-4.9-3.77v-1.516c0-2.633-1.425-3.717-3.808-3.717h-4.988c-2.433 0-3.622 1.284-3.622 3.48v1.795c0 3.023-1.676 3.988-4.893 3.988h-3.385c-1.865 0-2.724 1.158-2.724 2.702v6.24c0 2.059 1.157 3.024 3.41 3.024h4.052c2.421-.003 4.59 1.826 4.59 5.207zM86.07 54.482a3.521 3.521 0 003.521-3.521v-2.688a3.521 3.521 0 00-3.521-3.522h-2.688a3.522 3.522 0 00-3.521 3.522v2.688a3.521 3.521 0 003.521 3.521h2.688z"></path><path d="M36.547 31.871h3.008c2.251 0 3.409-.965 3.409-3.023v-1.974c.113-3.194 2.224-4.658 4.578-4.658h3.008c2.253 0 3.41-.965 3.41-3.023v-4.151c0-1.544-.858-2.702-2.724-2.702h-5.695c-1.846 0-2.631.855-2.631 2.782v2.434c0 2.195-1.681 4.253-4.171 4.364h-4.194c-1.845 0-2.631.855-2.631 2.782v2.508c0 2.256-1.771 4.375-4.379 4.375h-2.757c-2.188 0-3.329 1.165-3.329 3.674v3.071c0 3.381-2.168 5.21-4.588 5.21h-4.054c-2.251 0-3.409.965-3.409 3.023v6.766c0 2.059 1.158 3.023 3.409 3.023h4.054c2.42 0 4.588 1.049 4.588 4.431v2.412c0 2.509 1.142 3.674 3.329 3.674h2.757c2.607 0 4.379 2.119 4.379 4.375v2.539c0 1.927.786 2.782 2.631 2.782h4.213l-.021.024c2.491.11 4.171 2.169 4.171 4.364v2.433c0 1.927.785 2.782 2.631 2.782h5.694c1.866 0 2.725-1.158 2.725-2.702v-4.151c0-2.059-1.158-3.024-3.409-3.024H47.54c-2.348 0-4.453-1.457-4.576-4.633v-2.053c0-2.059-1.158-3.023-3.409-3.023h-3.008c-2.421 0-4.59-1.828-4.59-5.209V59.74c0-2.509 1.143-3.674 3.33-3.674h2.756c2.607 0 4.38-2.119 4.38-4.375V48.2c0-2.256-1.772-4.375-4.38-4.375h-2.756c-2.188 0-3.33-1.166-3.33-3.674v-3.36c0-3.38 2.169-4.92 4.59-4.92z"></path></g><!----></svg>