<svg data-v-423bf9ae="" xmlns="http://www.w3.org/2000/svg" viewBox="0 0 394 90" class="iconLeft"><!----><!----><!----><g data-v-423bf9ae="" id="5740d04d-7f51-48b6-92cd-a9b676ca5980" fill="#FFFFFF" transform="matrix(5.150214760914251,0,0,5.150214760914251,115.15154319701642,-1.4291849051769603)"><path d="M1.61 14.71L0.55 14.71L0.55 3.19L1.61 3.19L1.61 14.71ZM5.91 14.71L4.94 14.71L4.94 7.56Q4.94 7.18 4.82 7.02Q4.69 6.86 4.38 6.86L4.38 6.86Q4.17 6.86 3.96 6.99Q3.75 7.11 3.64 7.39L3.64 7.39L3.64 14.71L2.67 14.71L2.67 6.05L3.49 6.05Q3.53 6.37 3.53 6.71L3.53 6.71Q3.72 6.34 4.05 6.13Q4.37 5.91 4.77 5.91L4.77 5.91Q5.36 5.91 5.63 6.29Q5.91 6.66 5.91 7.50L5.91 7.50L5.91 14.71ZM10.88 14.71L9.81 14.71L9.56 12.78L7.84 12.78L7.59 14.71L6.55 14.71L8.13 3.19L9.38 3.19L10.88 14.71ZM7.97 11.80L9.44 11.80Q9.25 10.32 9.07 8.87Q8.89 7.42 8.72 5.89L8.72 5.89Q8.54 7.42 8.35 8.87Q8.16 10.32 7.97 11.80L7.97 11.80ZM13.73 13.09L13.73 11.17L14.63 11.17L14.63 13.10Q14.63 13.90 14.26 14.37Q13.89 14.84 13.09 14.84L13.09 14.84Q12.29 14.84 11.90 14.36Q11.51 13.87 11.51 13.08L11.51 13.08L11.51 7.70Q11.51 6.90 11.90 6.40Q12.29 5.91 13.09 5.91L13.09 5.91Q13.89 5.91 14.25 6.40Q14.60 6.89 14.60 7.69L14.60 7.69L14.60 9.56L13.73 9.56L13.73 7.67Q13.73 6.90 13.09 6.90L13.09 6.90Q12.77 6.90 12.61 7.11Q12.45 7.32 12.45 7.69L12.45 7.69L12.45 13.08Q12.45 13.86 13.09 13.86L13.09 13.86Q13.73 13.86 13.73 13.09L13.73 13.09ZM17.56 14L17.56 14.77Q17.49 14.80 17.35 14.82Q17.22 14.84 17.11 14.84L17.11 14.84Q16.34 14.84 15.96 14.36Q15.58 13.89 15.58 13.05L15.58 13.05L15.58 6.90L15.18 6.90L15.18 6.05L15.58 6.05L15.58 3.30L16.55 3.30L16.55 6.05L17.53 6.05L17.53 6.90L16.55 6.90L16.55 13.05Q16.55 13.58 16.74 13.80Q16.93 14.01 17.37 14.01L17.37 14.01Q17.42 14.01 17.47 14.01Q17.51 14.01 17.56 14L17.56 14ZM19.22 4.94L18.26 4.94L18.26 3.19L19.22 3.19L19.22 4.94ZM19.22 14.71L18.26 14.71L18.26 6.05L19.22 6.05L19.22 14.71ZM20.20 13.12L20.20 7.64Q20.20 6.80 20.59 6.36Q20.99 5.91 21.80 5.91L21.80 5.91Q22.60 5.91 23.00 6.36Q23.39 6.80 23.39 7.64L23.39 7.64L23.39 13.12Q23.39 13.96 23.00 14.40Q22.60 14.84 21.80 14.84L21.80 14.84Q20.99 14.84 20.59 14.40Q20.20 13.96 20.20 13.12L20.20 13.12ZM22.46 13.09L22.46 7.67Q22.46 7.31 22.32 7.11Q22.19 6.90 21.80 6.90L21.80 6.90Q21.41 6.90 21.27 7.11Q21.14 7.31 21.14 7.67L21.14 7.67L21.14 13.12Q21.14 13.48 21.27 13.67Q21.41 13.86 21.80 13.86L21.80 13.86Q22.19 13.86 22.32 13.66Q22.46 13.47 22.46 13.09L22.46 13.09ZM27.58 14.71L26.61 14.71L26.61 7.56Q26.61 7.18 26.49 7.02Q26.36 6.86 26.05 6.86L26.05 6.86Q25.84 6.86 25.63 6.99Q25.42 7.11 25.31 7.39L25.31 7.39L25.31 14.71L24.35 14.71L24.35 6.05L25.16 6.05Q25.20 6.37 25.20 6.71L25.20 6.71Q25.40 6.34 25.72 6.13Q26.04 5.91 26.45 5.91L26.45 5.91Q27.03 5.91 27.31 6.29Q27.58 6.66 27.58 7.50L27.58 7.50L27.58 14.71ZM31.54 14.71L30.48 14.71L30.48 3.19L33.60 3.19L33.60 4.27L31.54 4.27L31.54 8.37L32.96 8.37L32.96 9.44L31.54 9.44L31.54 14.71ZM35.25 4.94L34.29 4.94L34.29 3.19L35.25 3.19L35.25 4.94ZM35.25 14.71L34.29 14.71L34.29 6.05L35.25 6.05L35.25 14.71ZM38.32 14L38.32 14.77Q38.25 14.80 38.12 14.82Q37.98 14.84 37.87 14.84L37.87 14.84Q37.10 14.84 36.72 14.36Q36.34 13.89 36.34 13.05L36.34 13.05L36.34 6.90L35.94 6.90L35.94 6.05L36.34 6.05L36.34 3.30L37.31 3.30L37.31 6.05L38.29 6.05L38.29 6.90L37.31 6.90L37.31 13.05Q37.31 13.58 37.50 13.80Q37.69 14.01 38.14 14.01L38.14 14.01Q38.18 14.01 38.23 14.01Q38.28 14.01 38.32 14L38.32 14ZM42.22 14.71L41.26 14.71L41.26 7.56Q41.26 7.18 41.13 7.02Q41.01 6.86 40.70 6.86L40.70 6.86Q40.49 6.86 40.28 6.99Q40.07 7.11 39.96 7.39L39.96 7.39L39.96 14.71L38.99 14.71L38.99 6.05L39.80 6.05Q39.84 6.37 39.84 6.71L39.84 6.71Q40.04 6.34 40.36 6.13Q40.68 5.91 41.09 5.91L41.09 5.91Q41.68 5.91 41.95 6.29Q42.22 6.66 42.22 7.50L42.22 7.50L42.22 14.71ZM45.28 9.77L45.28 7.69Q45.28 6.92 44.63 6.92L44.63 6.92Q44.03 6.92 44.03 7.69L44.03 7.69L44.03 9.77L45.28 9.77ZM45.28 13.09L45.28 11.19L46.19 11.19L46.19 13.09Q46.19 14.84 44.63 14.84L44.63 14.84Q43.13 14.84 43.13 13.09L43.13 13.09L43.13 7.69Q43.13 6.80 43.52 6.36Q43.90 5.91 44.63 5.91L44.63 5.91Q46.19 5.91 46.19 7.69L46.19 7.69L46.19 10.47L44.03 10.47L44.03 13.09Q44.03 13.86 44.63 13.86L44.63 13.86Q45.28 13.86 45.28 13.09L45.28 13.09ZM49.15 13.20L49.15 12.21Q49.15 11.93 49.08 11.73Q49.00 11.52 48.73 11.20L48.73 11.20Q48.44 10.85 48.08 10.54Q47.71 10.22 47.45 9.90L47.45 9.90Q47.17 9.59 47.08 9.28Q47.00 8.97 47.00 8.47L47.00 8.47L47.00 7.57Q47.00 6.68 47.39 6.29Q47.78 5.91 48.54 5.91L48.54 5.91Q49.42 5.91 49.75 6.30Q50.08 6.69 50.08 7.57L50.08 7.57L50.08 8.99L49.20 8.99L49.20 7.57Q49.20 7.25 49.01 7.06Q48.83 6.87 48.57 6.87L48.57 6.87Q47.94 6.87 47.94 7.57L47.94 7.57L47.94 8.60Q47.94 8.90 48.01 9.08Q48.09 9.25 48.33 9.51L48.33 9.51Q48.61 9.81 48.96 10.09Q49.31 10.37 49.57 10.68L49.57 10.68Q49.90 11.06 50.01 11.42Q50.12 11.77 50.12 12.33L50.12 12.33L50.12 13.27Q50.12 14.11 49.72 14.48Q49.32 14.84 48.51 14.84L48.51 14.84Q47.00 14.84 47.00 13.23L47.00 13.23L47.00 11.82L47.87 11.82L47.87 13.20Q47.87 13.52 48.06 13.71Q48.24 13.90 48.52 13.90L48.52 13.90Q49.15 13.90 49.15 13.20L49.15 13.20ZM53.05 13.20L53.05 12.21Q53.05 11.93 52.97 11.73Q52.89 11.52 52.63 11.20L52.63 11.20Q52.33 10.85 51.97 10.54Q51.60 10.22 51.34 9.90L51.34 9.90Q51.06 9.59 50.97 9.28Q50.89 8.97 50.89 8.47L50.89 8.47L50.89 7.57Q50.89 6.68 51.28 6.29Q51.67 5.91 52.43 5.91L52.43 5.91Q53.31 5.91 53.64 6.30Q53.97 6.69 53.97 7.57L53.97 7.57L53.97 8.99L53.09 8.99L53.09 7.57Q53.09 7.25 52.91 7.06Q52.72 6.87 52.46 6.87L52.46 6.87Q51.83 6.87 51.83 7.57L51.83 7.57L51.83 8.60Q51.83 8.90 51.91 9.08Q51.98 9.25 52.22 9.51L52.22 9.51Q52.50 9.81 52.85 10.09Q53.20 10.37 53.47 10.68L53.47 10.68Q53.79 11.06 53.90 11.42Q54.01 11.77 54.01 12.33L54.01 12.33L54.01 13.27Q54.01 14.11 53.61 14.48Q53.21 14.84 52.40 14.84L52.40 14.84Q50.89 14.84 50.89 13.23L50.89 13.23L50.89 11.82L51.76 11.82L51.76 13.20Q51.76 13.52 51.95 13.71Q52.14 13.90 52.42 13.90L52.42 13.90Q53.05 13.90 53.05 13.20L53.05 13.20Z"></path></g><!----><g data-v-423bf9ae="" id="738bde6f-4582-43c9-9cb8-d1b94d16b89d" transform="matrix(1.8229691723514303,0,0,1.8229691723514303,-0.0334278608906331,1.016459384612034)" stroke="none" fill="#b91c1c"><path d="M43.28 28.31A10.52 10.52 0 1053.8 38.83a10.52 10.52 0 00-10.52-10.52zm0 14.57a4 4 0 114-4 4 4 0 01-4 4zm2.43-4a2.43 2.43 0 11-2.43-2.43 2.43 2.43 0 012.43 2.39z"></path><path d="M16.06 45.51c-4.09 0-7.56-.06-8.61-.23-3.12-.51-3.69-5.23-4-10.94-.18-.44-.39-.9-.6-1.38a18.66 18.66 0 01-2-6.82c-1.5-3.6-.89-7.29 1.83-11a7.58 7.58 0 01.28-2.39 6.2 6.2 0 00.21-1.28C3.17 5.14 7.6-.02 13.05-.02s9.87 5.15 9.87 11.49a11.82 11.82 0 01-.35 2.78 9.13 9.13 0 01-.09 13.3 23.06 23.06 0 01-1.62 6.42c2.06.89 7.62 1.71 13.09 1.86l2 .05v9.37h-2c-1.59.09-10.73.26-17.89.26zm-7.53-4.13c2.77.24 14.37.12 23.37 0v-1.57c-6-.27-13.46-1.2-15.19-4.18l-.54-.88.4-.93a19.79 19.79 0 001.93-7.29v-1l.82-.57a4.89 4.89 0 002-3.9 4.53 4.53 0 00-2.06-4.14l-1.56-.79.57-1.65a9 9 0 00.56-3c0-4.13-2.63-7.49-5.87-7.49s-5.88 3.36-5.88 7.49a9.38 9.38 0 01-.32 2.18 3.81 3.81 0 00-.17 1.22l.45 1.1-.75.92c-2.35 2.89-2.84 5.42-1.67 8l.24.4v.38a14.2 14.2 0 001.62 5.62c.29.64.54 1.26.77 1.85l.1.3v.32c.37 5.01.83 6.91 1.18 7.61z"></path></g><!----></svg>