<svg data-v-423bf9ae="" xmlns="http://www.w3.org/2000/svg" viewBox="0 0 646 90" class="iconLeft"><!----><!----><!----><g data-v-423bf9ae="" id="d1365eb1-6d5b-4bc4-9dcc-72c2c0f720cf" fill="white" transform="matrix(4.1407868148896405,0,0,4.1407868148896405,84.21430758610944,-0.23809503996548642)"><path d="M0.84 4.66L0.84 15.33L3.15 15.33L3.15 8.89L4.45 12.40L6.38 12.40L7.69 8.90L7.69 15.33L10.00 15.33L10.00 4.66L7.35 4.66L5.50 9.76L3.64 4.66ZM13.38 15.15C13.24 15.71 12.68 15.86 12.11 15.86C11.86 15.86 11.58 15.82 11.42 15.76L11.42 18.02C11.63 18.10 12.01 18.17 12.68 18.17C14.63 18.17 15.78 17.28 16.58 14.15L18.44 6.83L15.82 6.83L14.83 12.66L13.52 6.83L10.91 6.83L13.40 15.08ZM25.61 13.13L21.87 13.13L21.87 4.66L19.43 4.66L19.43 15.33L25.61 15.33ZM30.87 15.33L32.94 15.33L32.94 9.67C32.94 7.41 31.65 6.66 29.71 6.66C27.69 6.66 26.49 7.48 26.49 9.69L28.62 9.69C28.62 8.89 28.95 8.57 29.68 8.57C30.35 8.57 30.69 8.90 30.69 9.72L30.69 10.28C30.35 10.23 29.93 10.21 29.60 10.21C27.22 10.21 26.24 11.14 26.24 12.99C26.24 14.59 27.27 15.50 28.78 15.50C29.68 15.50 30.35 15.23 30.77 14.77ZM30.69 12.45C30.69 13.24 30.13 13.64 29.51 13.64C28.90 13.64 28.56 13.34 28.56 12.74C28.56 12.10 28.91 11.80 29.89 11.80C30.14 11.80 30.51 11.84 30.69 11.89ZM36.78 4.52L34.41 4.52L34.41 15.33L36.48 15.33L36.58 14.77C37.00 15.25 37.66 15.50 38.46 15.50C39.96 15.50 41.24 14.43 41.24 12.24L41.24 10.05C41.24 7.83 40.28 6.66 38.40 6.66C37.67 6.66 37.11 6.85 36.78 7.13ZM36.78 9.91C36.78 9.04 37.11 8.74 37.83 8.74C38.57 8.74 38.88 9.07 38.88 10.01L38.88 12.14C38.88 13.08 38.50 13.43 37.81 13.43C37.18 13.43 36.78 13.10 36.78 12.21ZM47.74 11.49L47.74 11.83C47.71 12.82 47.29 13.23 46.48 13.23C45.51 13.23 45.16 12.73 45.16 11.55L45.16 8.48C45.16 7.28 45.53 6.76 46.48 6.76C47.26 6.76 47.73 7.20 47.73 8.16L47.73 8.39L50.32 8.39L50.32 8.20C50.32 5.80 49.03 4.49 46.48 4.49C43.85 4.49 42.62 5.87 42.62 8.36L42.62 11.65C42.62 14.13 43.85 15.50 46.48 15.50C49.06 15.50 50.32 14.18 50.33 11.79L50.33 11.49ZM53.83 10.02C53.83 9.03 54.12 8.74 54.88 8.74C55.65 8.74 55.94 9.03 55.94 10.02L55.94 12.15C55.94 13.13 55.65 13.43 54.88 13.43C54.12 13.43 53.83 13.13 53.83 12.15ZM54.88 6.66C52.56 6.66 51.46 7.77 51.46 10.05L51.46 12.11C51.46 14.41 52.56 15.50 54.88 15.50C57.22 15.50 58.31 14.41 58.31 12.11L58.31 10.05C58.31 7.77 57.22 6.66 54.88 6.66ZM63.98 6.66C63.07 6.66 62.34 6.92 61.87 7.50L61.74 6.83L59.70 6.83L59.70 15.33L62.06 15.33L62.06 9.91C62.06 9.09 62.44 8.74 63.08 8.74C63.81 8.74 64.08 9.10 64.08 10.02L64.08 15.33L66.44 15.33L66.44 10.00C66.44 9.09 66.82 8.74 67.47 8.74C68.21 8.74 68.47 9.10 68.47 10.00L68.47 15.33L70.83 15.33L70.83 9.73C70.83 7.55 70.01 6.66 68.14 6.66C67.10 6.66 66.30 7.04 65.87 7.70C65.48 6.97 64.81 6.66 63.98 6.66ZM76.31 15.50C77.87 15.50 79.16 14.43 79.16 12.24L79.16 10.05C79.16 7.84 78.19 6.66 76.48 6.66C75.54 6.66 74.94 6.90 74.45 7.39L74.35 6.83L72.31 6.83L72.31 18.03L74.68 18.03L74.68 15.11C75.07 15.36 75.59 15.50 76.31 15.50ZM74.68 9.93C74.68 9.06 75.03 8.74 75.73 8.74C76.47 8.74 76.79 9.09 76.79 10.01L76.79 12.15C76.79 13.09 76.41 13.43 75.73 13.43C75.08 13.43 74.68 13.12 74.68 12.22ZM83.94 13.33C83.22 13.37 82.88 13.15 82.88 12.14L82.88 4.52L80.53 4.52L80.53 12.04C80.53 14.62 81.24 15.71 83.94 15.44ZM87.32 6.83L84.95 6.83L84.95 15.33L87.32 15.33ZM87.32 3.68L84.95 3.68L84.95 5.84L87.32 5.84ZM93.27 15.33L95.34 15.33L95.34 9.67C95.34 7.41 94.05 6.66 92.11 6.66C90.09 6.66 88.89 7.48 88.89 9.69L91.01 9.69C91.01 8.89 91.35 8.57 92.08 8.57C92.75 8.57 93.09 8.90 93.09 9.72L93.09 10.28C92.75 10.23 92.33 10.21 91.99 10.21C89.61 10.21 88.63 11.14 88.63 12.99C88.63 14.59 89.67 15.50 91.18 15.50C92.08 15.50 92.75 15.23 93.17 14.77ZM93.09 12.45C93.09 13.24 92.53 13.64 91.91 13.64C91.29 13.64 90.96 13.34 90.96 12.74C90.96 12.10 91.31 11.80 92.29 11.80C92.54 11.80 92.90 11.84 93.09 11.89ZM96.81 6.83L96.81 15.33L99.18 15.33L99.18 9.95C99.18 9.09 99.54 8.74 100.20 8.74C100.93 8.74 101.19 9.10 101.19 10.00L101.19 15.33L103.56 15.33L103.56 9.73C103.56 7.63 102.73 6.66 101.00 6.66C100.04 6.66 99.44 6.90 98.95 7.39L98.85 6.83ZM109.52 12.11L109.52 12.29C109.52 13.13 109.16 13.43 108.39 13.43C107.62 13.43 107.27 13.09 107.27 12.14L107.27 10.01C107.27 9.06 107.63 8.74 108.40 8.74C109.16 8.74 109.51 9.03 109.51 9.87L109.51 10.05L111.79 10.05L111.79 9.84C111.79 7.70 110.68 6.66 108.36 6.66C106.05 6.66 104.90 7.77 104.90 10.05L104.90 12.11C104.90 14.39 106.02 15.50 108.35 15.50C110.73 15.50 111.80 14.41 111.80 12.25L111.80 12.11ZM117.52 12.66C117.46 13.24 117.21 13.58 116.37 13.58C115.61 13.58 115.28 13.16 115.28 12.28L115.28 11.79L119.76 11.79L119.76 9.95C119.76 7.69 118.64 6.66 116.38 6.66C114.07 6.66 112.95 7.92 112.95 9.94L112.95 12.08C112.95 14.46 114.06 15.50 116.38 15.50C118.64 15.50 119.62 14.49 119.69 12.66ZM115.28 9.86C115.28 8.88 115.61 8.50 116.41 8.50C117.17 8.50 117.53 8.89 117.53 9.80L117.53 10.09L115.28 10.09ZM123.30 12.94L120.99 12.94L120.99 15.33L123.30 15.33ZM127.40 6.83L125.03 6.83L125.03 15.33L127.40 15.33ZM127.40 3.68L125.03 3.68L125.03 5.84L127.40 5.84ZM131.15 10.02C131.15 9.03 131.45 8.74 132.20 8.74C132.97 8.74 133.27 9.03 133.27 10.02L133.27 12.15C133.27 13.13 132.97 13.43 132.20 13.43C131.45 13.43 131.15 13.13 131.15 12.15ZM132.20 6.66C129.88 6.66 128.79 7.77 128.79 10.05L128.79 12.11C128.79 14.41 129.88 15.50 132.20 15.50C134.54 15.50 135.63 14.41 135.63 12.11L135.63 10.05C135.63 7.77 134.54 6.66 132.20 6.66Z"></path></g><!----><g data-v-423bf9ae="" id="4c08a5c3-1e5a-4a78-8a6f-b3ff55233f78" transform="matrix(1.0226698190478634,0,0,1.0226698190478634,-17.22948833759701,-5.13597357793526)" stroke="none" fill="white"><g color="#000"><path style="text-indent:0;text-transform:none;block-progression:tb" d="M39.797 5.998c-2.933 0-5.344 2.415-5.344 5.343 0 2.814 2.23 5.159 5 5.344l.094 18.844c-5.842 15.568-13.977 28.765-18.75 38.625-2.404 4.965-4.088 9.024-3.875 12.687.106 1.832.847 3.624 2.25 4.875 1.403 1.252 3.295 1.953 5.625 2.282a2 2 0 00.281 0h49.844a2 2 0 00.281 0c2.33-.33 4.223-1.03 5.625-2.282 1.402-1.252 2.145-3.043 2.25-4.875.211-3.662-1.47-7.722-3.875-12.687-4.773-9.86-12.913-23.057-18.75-38.625l.094-18.844c2.77-.186 5-2.53 5-5.344 0-2.928-2.41-5.343-5.343-5.343H39.797zm0 4h20.406c.76 0 1.344.6 1.344 1.343 0 .76-.585 1.344-1.344 1.344h-1.656a2 2 0 00-2 2l-.094 21.188a2 2 0 00.125.687c6.013 16.168 14.395 29.738 19.03 39.313 2.319 4.787 3.59 8.648 3.47 10.75-.061 1.05-.323 1.603-.907 2.125-.57.508-1.638.984-3.406 1.25H25.234c-1.77-.266-2.836-.741-3.406-1.25-.585-.522-.846-1.075-.907-2.125-.122-2.101 1.151-5.963 3.47-10.75 4.635-9.575 13.012-23.145 19.03-39.313a2 2 0 00.125-.687l-.125-21.188a2 2 0 00-2-2h-1.625c-.759 0-1.343-.585-1.343-1.344 0-.743.584-1.343 1.343-1.343z" overflow="visible"></path><path style="text-indent:0;text-transform:none;block-progression:tb" d="M42.479 52.475a2 2 0 00-1.854 1.248c-3.269 8.062-7.68 15.32-10.02 20.804-1.17 2.742-2.049 5.05-1.326 7.435.362 1.192 1.34 2.272 2.53 2.79 1.171.508 2.48.626 4.023.545H63.98a2 2 0 00.048 0c1.634-.04 2.997-.266 4.176-.85 1.18-.583 2.13-1.653 2.504-2.858.748-2.41-.155-4.748-1.363-7.439-2.417-5.382-6.94-12.393-10.193-20.426a2 2 0 00-1.854-1.25H42.479zM48.147 14.214a2 2 0 00-1.97 2.028v16.683a2 2 0 104 0V16.242a2 2 0 00-2.03-2.028z" overflow="visible"></path></g></g><!----></svg>