<svg data-v-423bf9ae="" xmlns="http://www.w3.org/2000/svg" viewBox="0 0 439 90" class="iconLeft"><!----><!----><!----><g data-v-423bf9ae="" id="618d502a-9bc1-476c-84b7-8ce9efe173c0" fill="white" transform="matrix(5.376344159530915,0,0,5.376344159530915,110.21737168836066,-0.05376458241538984)"><path d="M1.16 13.78L1.16 2.80L4.10 2.80Q5.17 2.80 5.95 3.21Q6.73 3.62 7.14 4.40Q7.55 5.18 7.55 6.27L7.55 6.27Q7.55 7.33 7.12 8.09Q6.69 8.85 5.88 9.25Q5.07 9.65 3.96 9.65L3.96 9.65L2.88 9.65L2.88 13.78L1.16 13.78ZM2.88 8.29L3.92 8.29Q5.87 8.29 5.87 6.28L5.87 6.28Q5.87 5.30 5.39 4.76Q4.91 4.22 4.00 4.22L4.00 4.22L2.88 4.22L2.88 8.29ZM11.03 5.48Q12.33 5.48 13.09 6.14Q13.85 6.80 13.85 8.12L13.85 8.12L13.85 13.78L12.42 13.78L12.35 12.54L12.24 12.54Q12.04 13.01 11.70 13.33Q11.35 13.64 10.95 13.80Q10.55 13.96 10.17 13.96L10.17 13.96Q9.54 13.96 9.06 13.69Q8.58 13.42 8.32 12.94Q8.05 12.46 8.05 11.85L8.05 11.85Q8.05 11.01 8.40 10.43Q8.74 9.85 9.43 9.42L9.43 9.42Q9.97 9.08 10.71 8.85Q11.44 8.61 12.30 8.50L12.30 8.50L12.30 8.22Q12.34 7.46 12.03 7.11Q11.72 6.76 11.05 6.76L11.05 6.76Q10.45 6.76 10.06 7.08Q9.67 7.39 9.43 7.97L9.43 7.97L8.18 7.36Q8.54 6.41 9.27 5.94Q10.01 5.48 11.03 5.48L11.03 5.48ZM10.68 12.64Q11.22 12.63 11.62 12.27Q12.01 11.92 12.28 11.35L12.28 11.35L12.28 9.67Q11.75 9.73 11.27 9.90Q10.79 10.06 10.43 10.32L10.43 10.32Q9.67 10.86 9.67 11.64L9.67 11.64Q9.67 11.96 9.81 12.19Q9.95 12.43 10.18 12.54Q10.41 12.66 10.68 12.64L10.68 12.64ZM22.63 5.63L24.34 5.63L22.85 13.78L20.71 13.78L19.52 7.74L19.46 7.74L18.29 13.80L16.15 13.80L14.67 5.63L16.39 5.63L17.28 12.41L18.79 5.63L20.21 5.63L21.71 12.43L22.63 5.63ZM35.62 13.79L33.77 13.79L31.73 9.65L31.55 9.65L30.47 9.65L30.47 13.78L28.75 13.78L28.75 2.80L31.69 2.80Q32.76 2.80 33.54 3.21Q34.32 3.62 34.73 4.40Q35.14 5.18 35.14 6.27L35.14 6.27Q35.14 7.39 34.65 8.18Q34.17 8.97 33.27 9.34L33.27 9.34L35.62 13.79ZM30.47 4.22L30.47 8.29L31.51 8.29Q33.46 8.29 33.46 6.28L33.46 6.28Q33.46 5.30 32.98 4.76Q32.50 4.22 31.59 4.22L31.59 4.22L30.47 4.22ZM42.32 9.44Q42.32 9.97 42.28 10.19L42.28 10.19L37.80 10.19Q37.81 10.86 38.02 11.40Q38.23 11.94 38.63 12.26Q39.03 12.57 39.59 12.57L39.59 12.57Q40.50 12.57 41.06 11.77L41.06 11.77L42.18 12.37Q41.73 13.23 41.06 13.59Q40.39 13.95 39.53 13.95L39.53 13.95Q38.49 13.95 37.73 13.40Q36.97 12.86 36.57 11.90Q36.18 10.95 36.18 9.73L36.18 9.73Q36.18 8.51 36.50 7.56Q36.82 6.60 37.53 6.04Q38.23 5.48 39.33 5.48L39.33 5.48Q40.96 5.48 41.64 6.58Q42.32 7.69 42.32 9.44L42.32 9.44ZM39.37 6.80Q38.55 6.80 38.19 7.42Q37.84 8.05 37.81 9.04L37.81 9.04L40.90 9.04Q40.88 8.31 40.75 7.83Q40.61 7.35 40.28 7.08Q39.95 6.80 39.37 6.80L39.37 6.80ZM43.65 13.78L43.65 2.80L45.32 2.80L45.32 13.78L43.65 13.78ZM47.17 4.44L47.17 2.80L48.84 2.80L48.84 4.44L47.17 4.44ZM47.16 13.78L47.16 5.63L48.84 5.63L48.84 13.78L47.16 13.78ZM56.30 9.44Q56.30 9.97 56.26 10.19L56.26 10.19L51.78 10.19Q51.79 10.86 52.00 11.40Q52.21 11.94 52.61 12.26Q53.01 12.57 53.57 12.57L53.57 12.57Q54.48 12.57 55.04 11.77L55.04 11.77L56.16 12.37Q55.71 13.23 55.04 13.59Q54.37 13.95 53.50 13.95L53.50 13.95Q52.47 13.95 51.71 13.40Q50.95 12.86 50.55 11.90Q50.16 10.95 50.16 9.73L50.16 9.73Q50.16 8.51 50.48 7.56Q50.80 6.60 51.51 6.04Q52.21 5.48 53.31 5.48L53.31 5.48Q54.94 5.48 55.62 6.58Q56.30 7.69 56.30 9.44L56.30 9.44ZM53.35 6.80Q52.53 6.80 52.17 7.42Q51.82 8.05 51.79 9.04L51.79 9.04L54.88 9.04Q54.86 8.31 54.73 7.83Q54.59 7.35 54.26 7.08Q53.93 6.80 53.35 6.80L53.35 6.80ZM57.87 13.78L57.87 6.79L56.79 6.79L56.79 5.63L57.89 5.63L57.89 5.11Q57.89 4.05 58.40 3.43Q58.91 2.80 59.86 2.80L59.86 2.80L60.98 2.80L60.98 4.00L60.31 4.00Q59.92 4.00 59.70 4.29Q59.49 4.57 59.49 5.06L59.49 5.06L59.49 5.63L60.98 5.63L60.98 6.79L59.53 6.79L59.53 13.78L57.87 13.78Z"></path></g><!----><g data-v-423bf9ae="" id="e3e671b0-5b30-4dfc-a401-e9600016a9e3" transform="matrix(1.0000554433407207,0,0,1.0000554433407207,-23.22828316281705,-27.001497081025235)" stroke="none" fill="white"><path d="M72.046 65.872c-12.552 0-23.363 7.822-28.921 20.924-4.396 10.365-4.064 21.124.807 26.162 2.591 2.681 5.583 4.039 8.896 4.039h.001c4.767-.001 9.118-2.788 12.958-5.248 2.3-1.473 4.905-3.143 6.26-3.143 1.383 0 4.05 1.661 6.402 3.126 3.879 2.416 8.275 5.154 12.998 5.154 3.277 0 6.211-1.324 8.718-3.937 4.985-5.192 5.354-16.119.9-26.57-5.474-12.841-16.322-20.507-29.019-20.507zm23.79 42.924c-1.37 1.427-2.765 2.091-4.39 2.091-3.007 0-6.63-2.256-9.826-4.247-3.33-2.074-6.476-4.033-9.574-4.033-3.111 0-6.213 1.987-9.496 4.091-3.146 2.015-6.712 4.3-9.723 4.3-1.669 0-3.124-.702-4.581-2.209-2.71-2.803-3.3-10.919.402-19.649 1.719-4.051 8.483-17.267 23.397-17.267 14.723 0 21.338 11.791 23.499 16.86 3.764 8.828 3.104 17.133.292 20.063zM59.51 61.028c.594 0 1.189-.06 1.771-.179 6.575-1.341 10.368-9.767 8.636-19.181-1.565-8.498-7.109-14.666-13.183-14.666a8.85 8.85 0 00-1.77.179c-6.575 1.341-10.369 9.766-8.636 19.181 1.564 8.498 7.108 14.666 13.182 14.666zm-3.347-27.967c.188-.038.38-.058.571-.058 2.638 0 6.172 3.729 7.282 9.752 1.192 6.482-1.116 11.641-3.935 12.216-.188.038-.38.058-.571.058-2.639 0-6.173-3.729-7.281-9.752-1.192-6.484 1.116-11.642 3.934-12.216zM44.914 57.581c-3.001-4.359-7.504-7.066-11.752-7.066-2.046 0-3.951.627-5.508 1.814-4.887 3.727-5.137 11.846-.569 18.484 3.001 4.358 7.504 7.066 11.753 7.066 2.046 0 3.95-.627 5.507-1.813 4.886-3.728 5.136-11.846.569-18.485zm-4.207 13.713c-.51.388-1.139.585-1.869.585-2.269 0-4.942-1.754-6.811-4.469-2.892-4.201-2.708-8.806-.736-10.31.51-.389 1.139-.585 1.87-.585 2.268 0 4.942 1.754 6.81 4.468 2.892 4.202 2.708 8.806.736 10.311zM82.803 60.85a8.846 8.846 0 001.771.179h.001c6.071 0 11.614-6.167 13.181-14.667 1.73-9.415-2.063-17.84-8.639-19.18a8.833 8.833 0 00-1.769-.179c-6.074 0-11.617 6.168-13.181 14.665-1.734 9.415 2.059 17.84 8.636 19.182zm-2.735-18.095c1.108-6.023 4.642-9.752 7.28-9.752.191 0 .384.02.57.058 2.818.575 5.128 5.733 3.937 12.215-1.11 6.024-4.644 9.753-7.281 9.753a2.88 2.88 0 01-.571-.058c-2.821-.575-5.129-5.733-3.935-12.216zM116.428 52.328c-1.556-1.187-3.46-1.813-5.506-1.813-4.248 0-8.751 2.708-11.752 7.066-4.569 6.638-4.32 14.757.568 18.484 1.556 1.187 3.46 1.813 5.506 1.813 4.248 0 8.753-2.708 11.755-7.067 4.567-6.637 4.317-14.756-.571-18.483zm-4.371 15.082c-1.87 2.715-4.544 4.469-6.813 4.469-.73 0-1.359-.197-1.868-.585-1.974-1.505-2.156-6.109.735-10.311 1.869-2.715 4.543-4.469 6.811-4.469.73 0 1.359.197 1.868.584 1.974 1.506 2.158 6.111-.733 10.312z"></path></g><!----></svg>