<svg data-v-423bf9ae="" xmlns="http://www.w3.org/2000/svg" viewBox="0 0 455 90" class="iconLeft"><!----><!----><!----><g data-v-423bf9ae="" id="571d2d97-994d-415d-ab54-3d67c249c7d1" fill="white" transform="matrix(5.882351951203298,0,0,5.882351951203298,106.29412244636134,-18.411756165713463)"><path d="M6.59 9.21L6.59 8.71Q6.59 8.23 6.41 7.87Q6.22 7.50 5.89 7.27Q5.57 7.03 5.15 6.90Q4.73 6.78 4.27 6.78L4.27 6.78Q3.86 6.78 3.50 6.88Q3.14 6.99 2.85 7.18Q2.56 7.38 2.39 7.66Q2.23 7.95 2.23 8.33L2.23 8.33L2.23 8.41Q2.23 8.82 2.39 9.11Q2.56 9.39 2.89 9.60Q3.22 9.80 3.71 9.93Q4.20 10.07 4.86 10.16L4.86 10.16Q6.40 10.40 7.13 11.07Q7.85 11.73 7.85 12.85L7.85 12.85L7.85 13.02Q7.85 13.65 7.64 14.17Q7.42 14.70 6.99 15.08Q6.57 15.46 5.94 15.67Q5.31 15.88 4.48 15.88L4.48 15.88Q3.54 15.88 2.82 15.60Q2.10 15.33 1.62 14.85Q1.13 14.36 0.88 13.71Q0.63 13.06 0.63 12.29L0.63 12.29L0.63 11.87L1.81 11.87L1.81 12.21Q1.81 13.50 2.51 14.14Q3.22 14.78 4.48 14.78L4.48 14.78Q5.57 14.78 6.13 14.30Q6.68 13.82 6.68 13.02L6.68 13.02L6.68 12.94Q6.68 12.17 6.11 11.76Q5.54 11.35 4.27 11.17L4.27 11.17Q3.53 11.07 2.93 10.87Q2.34 10.67 1.92 10.34Q1.50 10.01 1.27 9.55Q1.05 9.09 1.05 8.46L1.05 8.46L1.05 8.29Q1.05 7.71 1.29 7.24Q1.53 6.76 1.95 6.41Q2.38 6.06 2.98 5.87Q3.57 5.68 4.28 5.68L4.28 5.68Q5.11 5.68 5.76 5.92Q6.41 6.16 6.86 6.56Q7.31 6.96 7.54 7.50Q7.77 8.04 7.77 8.62L7.77 8.62L7.77 9.21L6.59 9.21ZM14.83 14.59L14.83 14.50L14.66 14.50Q14.32 15.20 13.73 15.54Q13.13 15.88 12.47 15.88L12.47 15.88Q11.79 15.88 11.20 15.64Q10.61 15.41 10.17 14.96Q9.73 14.50 9.48 13.85Q9.23 13.19 9.23 12.32L9.23 12.32L9.23 12.10Q9.23 11.24 9.48 10.58Q9.73 9.93 10.17 9.47Q10.61 9.02 11.20 8.78Q11.79 8.54 12.45 8.54L12.45 8.54Q13.16 8.54 13.74 8.86Q14.32 9.17 14.66 9.83L14.66 9.83L14.83 9.83L14.83 8.74L15.92 8.74L15.92 14.25Q15.92 14.67 16.30 14.67L16.30 14.67L16.65 14.67L16.65 15.68L15.90 15.68Q15.43 15.68 15.13 15.37Q14.83 15.06 14.83 14.59L14.83 14.59ZM12.59 14.84L12.59 14.84Q13.08 14.84 13.49 14.66Q13.90 14.48 14.20 14.14Q14.49 13.80 14.66 13.33Q14.83 12.87 14.83 12.29L14.83 12.29L14.83 12.12Q14.83 11.56 14.66 11.09Q14.49 10.63 14.19 10.29Q13.89 9.95 13.47 9.77Q13.06 9.58 12.59 9.58L12.59 9.58Q12.10 9.58 11.69 9.76Q11.28 9.94 10.98 10.27Q10.68 10.60 10.51 11.07Q10.35 11.54 10.35 12.10L10.35 12.10L10.35 12.32Q10.35 13.51 10.97 14.17Q11.59 14.84 12.59 14.84ZM18.28 9.74L18.28 8.74L20.43 8.74L20.43 6.97Q20.43 6.50 20.73 6.19Q21.03 5.88 21.50 5.88L21.50 5.88L24.25 5.88L24.25 6.89L21.90 6.89Q21.52 6.89 21.52 7.31L21.52 7.31L21.52 8.74L24.42 8.74L24.42 9.74L21.52 9.74L21.52 15.68L20.43 15.68L20.43 9.74L18.28 9.74ZM33.32 12.54L27.72 12.54Q27.76 13.58 28.36 14.21Q28.97 14.84 30.04 14.84L30.04 14.84Q30.53 14.84 30.90 14.73Q31.26 14.62 31.52 14.42Q31.78 14.22 31.94 13.96Q32.10 13.71 32.20 13.41L32.20 13.41L33.24 13.69Q32.94 14.66 32.15 15.27Q31.36 15.88 30.02 15.88L30.02 15.88Q29.27 15.88 28.65 15.62Q28.03 15.36 27.58 14.88Q27.13 14.41 26.88 13.75Q26.63 13.09 26.63 12.29L26.63 12.29L26.63 11.96Q26.63 11.23 26.89 10.60Q27.15 9.97 27.61 9.51Q28.07 9.06 28.69 8.80Q29.32 8.54 30.04 8.54L30.04 8.54Q30.90 8.54 31.52 8.86Q32.14 9.17 32.54 9.63Q32.94 10.09 33.13 10.64Q33.32 11.19 33.32 11.65L33.32 11.65L33.32 12.54ZM30.04 9.58L30.04 9.58Q29.58 9.58 29.18 9.72Q28.78 9.87 28.48 10.14Q28.18 10.40 27.99 10.76Q27.80 11.12 27.75 11.54L27.75 11.54L32.23 11.54Q32.20 11.09 32.01 10.72Q31.82 10.36 31.52 10.11Q31.22 9.86 30.84 9.72Q30.45 9.58 30.04 9.58ZM36.58 12.07L36.58 15.68L35.49 15.68L35.49 5.88L36.58 5.88L36.58 10.00L36.75 10.00Q37.07 9.32 37.65 8.93Q38.23 8.54 39.07 8.54L39.07 8.54Q40.21 8.54 40.91 9.29Q41.62 10.04 41.62 11.54L41.62 11.54L41.62 15.68L40.53 15.68L40.53 11.76Q40.53 10.67 40.04 10.12Q39.55 9.58 38.71 9.58L38.71 9.58Q37.72 9.58 37.15 10.25Q36.58 10.93 36.58 12.07L36.58 12.07ZM49.01 12.35L49.01 8.74L50.11 8.74L50.11 15.68L49.01 15.68L49.01 14.42L48.85 14.42Q48.51 15.09 47.96 15.48Q47.42 15.88 46.58 15.88L46.58 15.88Q46.00 15.88 45.52 15.69Q45.04 15.50 44.69 15.12Q44.35 14.74 44.16 14.18Q43.97 13.62 43.97 12.88L43.97 12.88L43.97 8.74L45.07 8.74L45.07 12.74Q45.07 13.83 45.51 14.34Q45.96 14.84 46.89 14.84L46.89 14.84Q47.88 14.84 48.45 14.16Q49.01 13.48 49.01 12.35L49.01 12.35ZM53.47 14.62L53.47 15.68L52.37 15.68L52.37 5.88L53.47 5.88L53.47 9.83L53.63 9.83Q54.00 9.20 54.64 8.87Q55.29 8.54 56.04 8.54L56.04 8.54Q56.69 8.54 57.26 8.78Q57.83 9.02 58.27 9.46Q58.72 9.91 58.97 10.57Q59.23 11.23 59.23 12.07L59.23 12.07L59.23 12.35Q59.23 13.20 58.98 13.86Q58.73 14.52 58.29 14.97Q57.85 15.41 57.26 15.64Q56.67 15.88 56.01 15.88L56.01 15.88Q55.68 15.88 55.33 15.80Q54.98 15.72 54.66 15.56Q54.35 15.40 54.08 15.17Q53.82 14.94 53.63 14.62L53.63 14.62L53.47 14.62ZM55.79 14.84L55.79 14.84Q56.29 14.84 56.71 14.66Q57.13 14.49 57.45 14.17Q57.76 13.85 57.94 13.38Q58.11 12.92 58.11 12.35L58.11 12.35L58.11 12.07Q58.11 11.51 57.94 11.05Q57.76 10.60 57.45 10.27Q57.13 9.94 56.71 9.76Q56.28 9.58 55.79 9.58L55.79 9.58Q55.30 9.58 54.88 9.77Q54.46 9.95 54.14 10.29Q53.83 10.63 53.65 11.09Q53.47 11.56 53.47 12.12L53.47 12.12L53.47 12.29Q53.47 12.87 53.65 13.33Q53.83 13.80 54.14 14.14Q54.46 14.48 54.88 14.66Q55.30 14.84 55.79 14.84Z"></path></g><!----><g data-v-423bf9ae="" id="0bc19a73-172f-4eb6-b8c5-7955f6804cee" transform="matrix(2.8125,0,0,2.8125,0,0)" stroke="none" fill="white"><path d="M0 32h32V0H0v32zm19.377-19.492l6.936-6.936v20.855h-6.936V12.508zM5.688 5.572l6.936 6.936v13.919H5.688V5.572z"></path></g><!----></svg>