<?xml version="1.0" standalone="no"?>
<!DOCTYPE svg PUBLIC "-//W3C//DTD SVG 20010904//EN"
 "http://www.w3.org/TR/2001/REC-SVG-20010904/DTD/svg10.dtd">
<svg version="1.0" xmlns="http://www.w3.org/2000/svg"
 width="567.000000pt" height="90.000000pt" viewBox="0 0 567.000000 90.000000"
 preserveAspectRatio="xMidYMid meet">

<g transform="translate(0.000000,90.000000) scale(0.100000,-0.100000)"
fill="#000000" stroke="none">
<path d="M355 880 c-46 -19 -69 -67 -201 -421 -164 -439 -156 -412 -137 -438
16 -24 65 -29 80 -8 6 6 72 180 149 386 76 205 145 376 152 379 20 7 22 2 103
-226 50 -137 80 -207 92 -214 38 -20 60 -1 106 87 25 47 48 82 52 78 5 -5 47
-112 94 -238 48 -126 91 -237 96 -247 15 -27 65 -24 84 6 15 23 11 36 -81 282
-108 291 -125 319 -194 319 -30 0 -46 -7 -69 -29 -17 -16 -33 -38 -37 -48 -3
-10 -9 -18 -13 -18 -5 0 -25 48 -46 108 -61 171 -80 209 -117 232 -34 21 -78
25 -113 10z"/>
<path d="M4160 505 l0 -245 40 0 40 0 0 245 0 245 -40 0 -40 0 0 -245z"/>
<path d="M3264 716 c-17 -8 -39 -24 -48 -37 -20 -29 -21 -98 -1 -146 15 -34
14 -38 -6 -60 -34 -35 -38 -119 -8 -157 30 -38 76 -56 144 -56 109 0 155 44
155 149 0 50 1 51 30 51 27 0 30 3 30 30 l0 30 -80 0 -80 0 0 -30 c0 -20 5
-30 15 -30 28 0 7 -103 -25 -120 -61 -33 -137 6 -126 64 5 28 39 69 66 78 6 2
8 16 4 36 -5 24 -11 32 -22 27 -34 -13 -45 70 -14 98 36 32 112 9 112 -34 0
-16 7 -19 41 -19 41 0 41 0 34 33 -4 17 -14 43 -22 55 -30 48 -132 67 -199 38z"/>
<path d="M1240 685 l0 -35 65 0 65 0 0 -195 0 -195 40 0 40 0 0 195 0 195 60
0 60 0 0 35 0 35 -165 0 -165 0 0 -35z"/>
<path d="M3828 699 c-91 -48 -91 -177 0 -223 15 -7 54 -16 87 -20 32 -4 67
-14 77 -23 21 -19 24 -66 4 -82 -43 -36 -150 -15 -162 33 -5 22 -10 24 -42 19
-21 -3 -38 -7 -40 -8 -2 -2 3 -18 11 -36 29 -69 102 -106 189 -96 96 12 145
66 136 151 -9 76 -63 116 -156 116 -53 0 -92 25 -92 60 0 38 32 60 86 60 33 0
47 -5 62 -25 15 -19 29 -25 57 -25 33 0 36 2 30 23 -13 41 -36 68 -70 83 -49
20 -133 17 -177 -7z"/>
<path d="M1745 621 c-44 -3 -86 -10 -93 -14 -38 -25 -57 -126 -42 -227 7 -54
14 -70 40 -92 38 -34 57 -35 120 -3 l50 25 12 -25 c7 -16 19 -25 35 -25 l23 0
0 185 0 185 -32 -2 c-18 -1 -69 -4 -113 -7z m75 -154 l0 -94 -39 -18 c-68 -30
-101 -2 -101 90 0 85 25 113 103 114 l37 1 0 -93z"/>
<path d="M2033 610 c-49 -29 -63 -66 -63 -165 0 -128 25 -170 117 -189 37 -8
102 7 133 32 13 11 23 33 27 60 l6 42 -35 0 c-31 0 -36 -4 -41 -29 -5 -25 -13
-31 -42 -37 -72 -13 -106 46 -92 162 7 62 21 76 76 72 37 -2 48 -8 56 -25 12
-28 75 -34 75 -8 0 29 -30 75 -60 90 -41 21 -118 19 -157 -5z"/>
<path d="M2380 617 c-36 -18 -66 -69 -74 -124 -6 -52 6 -150 24 -182 29 -55
162 -76 217 -35 46 34 58 69 58 169 0 103 -17 144 -71 170 -39 18 -120 19
-154 2z m134 -79 c11 -15 16 -46 16 -96 0 -64 -3 -76 -25 -97 -25 -26 -54 -31
-85 -15 -43 23 -56 157 -19 204 27 35 90 37 113 4z"/>
<path d="M2723 616 c-39 -18 -53 -43 -53 -94 0 -60 28 -89 101 -103 64 -13 89
-29 89 -58 0 -29 -25 -42 -72 -39 -33 2 -45 8 -53 26 -14 31 -75 32 -75 1 0
-55 51 -89 135 -89 61 0 108 19 125 49 5 11 10 38 10 61 0 57 -37 94 -105 105
-66 9 -85 21 -85 50 0 48 75 62 108 20 13 -17 30 -25 50 -25 30 0 30 1 21 32
-15 53 -41 71 -106 75 -36 2 -70 -2 -90 -11z"/>
<path d="M4384 614 c-52 -26 -69 -67 -69 -169 0 -140 38 -190 144 -189 114 0
154 50 153 190 0 94 -16 135 -65 164 -39 24 -119 26 -163 4z m144 -84 c8 -16
12 -51 10 -99 -3 -63 -7 -76 -27 -92 -30 -24 -62 -24 -92 0 -21 17 -24 30 -27
99 -4 71 -2 82 18 102 31 31 99 25 118 -10z"/>
<path d="M5100 608 c-51 -35 -65 -69 -63 -164 2 -131 32 -174 133 -187 80 -11
139 26 156 96 6 25 4 27 -24 27 -21 0 -40 -10 -62 -31 -26 -26 -36 -30 -63
-25 -40 8 -67 39 -67 77 l0 29 110 0 110 0 0 38 c0 56 -17 106 -45 132 -39 36
-137 41 -185 8z m116 -44 c21 -6 44 -42 44 -69 0 -12 -16 -15 -76 -15 l-76 0
6 28 c12 48 51 70 102 56z"/>
<path d="M5444 611 c-36 -22 -55 -66 -46 -107 13 -54 27 -66 98 -84 76 -18
103 -45 83 -82 -16 -29 -100 -22 -114 10 -14 31 -75 32 -75 1 0 -55 51 -89
135 -89 31 0 69 7 84 15 57 29 67 128 17 171 -13 12 -46 25 -73 29 -64 9 -83
21 -83 50 0 47 67 60 104 20 32 -34 76 -34 76 -1 0 14 -11 37 -24 52 -20 24
-32 28 -87 31 -51 3 -71 0 -95 -16z"/>
<path d="M4690 385 l0 -235 40 0 40 0 0 76 0 75 29 -20 c54 -39 126 -17 157
47 38 80 30 218 -16 264 -28 27 -31 28 -139 28 l-111 0 0 -235z m192 145 c13
-16 18 -40 18 -84 0 -97 -35 -128 -101 -89 -29 17 -29 18 -29 111 l0 95 47 -6
c32 -3 53 -12 65 -27z"/>
</g>
</svg>
