<?xml version="1.0" encoding="UTF-8"?>
<svg version="1.1" xmlns="http://www.w3.org/2000/svg" width="512" height="512">
<path d="M0 0 C1.3661014 -0.00374414 2.73220066 -0.00834869 4.09829658 -0.01373065 C7.82404016 -0.02588201 11.54969342 -0.02570954 15.27545226 -0.02334189 C19.30496622 -0.02293171 23.334452 -0.03399206 27.36395264 -0.04345703 C35.24860712 -0.06002546 43.1332317 -0.06556472 51.01790214 -0.06668179 C57.43244014 -0.06763437 63.84696833 -0.07175513 70.26150322 -0.07808304 C88.47739607 -0.09568517 106.69326541 -0.10492368 124.90916682 -0.10342209 C126.38026793 -0.10330222 126.38026793 -0.10330222 127.88108826 -0.10317993 C128.86303026 -0.10309817 129.84497226 -0.10301641 130.85667007 -0.10293217 C146.75797294 -0.10211987 162.65918095 -0.12124614 178.5604564 -0.14945666 C194.91669779 -0.1782436 211.272893 -0.19199373 227.62916034 -0.19026911 C236.80026473 -0.18960715 245.9712697 -0.195014 255.14235115 -0.21662521 C262.95304876 -0.23491378 270.7636019 -0.23912186 278.57431174 -0.22560637 C282.55231771 -0.2191148 286.53004715 -0.21881971 290.50802612 -0.23631287 C309.36472067 -0.31410432 327.57035362 -0.20198092 345.13182068 7.57992554 C346.17608215 8.02767334 346.17608215 8.02767334 347.24143982 8.48446655 C372.61108022 19.68775144 391.45685138 41.04299589 402.19432068 66.26742554 C406.86236402 78.74786188 408.4946884 90.80482526 408.46174622 104.07310486 C408.46549036 105.43920626 408.4700949 106.80530551 408.47547686 108.17140144 C408.48762822 111.89714502 408.48745575 115.62279828 408.48508811 119.34855711 C408.48467793 123.37807108 408.49573827 127.40755686 408.50520325 131.4370575 C408.52177168 139.32171198 408.52731093 147.20633656 408.528428 155.091007 C408.52938058 161.505545 408.53350135 167.92007319 408.53982925 174.33460808 C408.55743139 192.55050092 408.56666989 210.76637027 408.56516831 228.98227168 C408.56504844 230.45337279 408.56504844 230.45337279 408.56492615 231.95419312 C408.56484439 232.93613511 408.56476262 233.91807711 408.56467839 234.92977493 C408.56386608 250.8310778 408.58299236 266.73228581 408.61120288 282.63356126 C408.63998981 298.98980265 408.65373994 315.34599786 408.65201533 331.7022652 C408.65135336 340.87336959 408.65676022 350.04437456 408.67837143 359.21545601 C408.69666 367.02615361 408.70086808 374.83670676 408.68735258 382.6474166 C408.68086102 386.62542256 408.68056593 390.60315201 408.69805908 394.58113098 C408.77585053 413.43782553 408.66372713 431.64345848 400.88182068 449.20492554 C400.58332214 449.90109985 400.28482361 450.59727417 399.97727966 451.31454468 C388.77399478 476.68418508 367.41875033 495.52995624 342.19432068 506.26742554 C329.71388434 510.93546887 317.65692095 512.56779326 304.38864136 512.53485107 C303.02253996 512.53859522 301.6564407 512.54319976 300.29034477 512.54858172 C296.5646012 512.56073308 292.83894794 512.56056061 289.1131891 512.55819297 C285.08367513 512.55778279 281.05418936 512.56884313 277.02468872 512.57830811 C269.14003423 512.59487654 261.25540966 512.60041579 253.37073921 512.60153286 C246.95620122 512.60248544 240.54167303 512.60660621 234.12713814 512.61293411 C215.91124529 512.63053625 197.69537595 512.63977475 179.47947454 512.63827316 C178.49874046 512.63819325 177.51800639 512.63811334 176.5075531 512.63803101 C175.5256111 512.63794924 174.5436691 512.63786748 173.53197128 512.63778324 C157.63066841 512.63697094 141.7294604 512.65609722 125.82818495 512.68430774 C109.47194357 512.71309467 93.11574835 512.7268448 76.75948101 512.72512019 C67.58837663 512.72445822 58.41737166 512.72986507 49.24629021 512.75147629 C41.4355926 512.76976486 33.62503946 512.77397293 25.81432962 512.76045744 C21.83632365 512.75396587 17.85859421 512.75367079 13.88061523 512.77116394 C-4.97607931 512.84895539 -23.18171226 512.73683199 -40.74317932 504.95492554 C-41.43935364 504.656427 -42.13552795 504.35792847 -42.85279846 504.05038452 C-68.22243887 492.84709963 -87.06821003 471.49185519 -97.80567932 446.26742554 C-102.47372266 433.7869892 -104.10604705 421.73002581 -104.07310486 408.46174622 C-104.076849 407.09564482 -104.08145354 405.72954556 -104.0868355 404.36344963 C-104.09898687 400.63770605 -104.0988144 396.9120528 -104.09644675 393.18629396 C-104.09603657 389.15677999 -104.10709692 385.12729421 -104.11656189 381.09779358 C-104.13313032 373.21313909 -104.13866958 365.32851452 -104.13978665 357.44384407 C-104.14073923 351.02930608 -104.14485999 344.61477789 -104.1511879 338.200243 C-104.16879003 319.98435015 -104.17802854 301.76848081 -104.17652695 283.5525794 C-104.17644704 282.57184532 -104.17636712 281.59111125 -104.17628479 280.58065796 C-104.17620303 279.59871596 -104.17612127 278.61677396 -104.17603703 277.60507614 C-104.17522473 261.70377327 -104.194351 245.80256526 -104.22256152 229.90128981 C-104.25134846 213.54504843 -104.26509858 197.18885321 -104.26337397 180.83258587 C-104.26271201 171.66148149 -104.26811886 162.49047652 -104.28973007 153.31939507 C-104.30801864 145.50869746 -104.31222672 137.69814432 -104.29871123 129.88743448 C-104.29221966 125.90942851 -104.29192457 121.93169906 -104.30941772 117.95372009 C-104.38720918 99.09702555 -104.27508578 80.89139259 -96.49317932 63.32992554 C-96.04543152 62.28566406 -96.04543152 62.28566406 -95.58863831 61.2203064 C-84.38535342 35.85066599 -63.03010897 17.00489483 -37.80567932 6.26742554 C-25.32524298 1.5993822 -13.2682796 -0.03294219 0 0 Z " fill="#F17422" transform="translate(103.80567932128906,-0.267425537109375)"/>
<path d="M0 0 C0.97582031 0.20496094 1.95164062 0.40992187 2.95703125 0.62109375 C5.68897112 1.29673479 8.32595348 2.12148472 11 3 C11.66837891 3.20544434 12.33675781 3.41088867 13.02539062 3.62255859 C32.16427093 9.5345472 50.5386923 18.12778964 66 31 C67.20849609 31.91072266 67.20849609 31.91072266 68.44140625 32.83984375 C100.19347065 56.94694882 121.0114211 94.49749491 126.52693462 133.7500658 C127.00990421 137.68825919 127.13380293 141.56364386 127.14717102 145.53410339 C127.15084771 146.24794907 127.1545244 146.96179475 127.1583125 147.69727212 C127.16923795 150.06536022 127.17317383 152.43340429 127.17700195 154.80151367 C127.1832745 156.50884639 127.18992199 158.21617777 127.19691467 159.92350769 C127.21784435 165.50498523 127.22829917 171.08646274 127.23828125 176.66796875 C127.24233144 178.59331082 127.24644844 180.51865274 127.25063133 182.44399452 C127.26965 191.48190902 127.28389407 200.51981548 127.2922433 209.55774611 C127.30203642 219.98487472 127.32842373 230.41179222 127.36874419 240.83884639 C127.39887255 248.90696144 127.41370862 256.97501578 127.41702431 265.04318601 C127.41937635 269.85948003 127.42835858 274.67554761 127.45348549 279.49178123 C127.47671718 284.01695075 127.48101935 288.54174384 127.47072411 293.06695747 C127.47022762 294.72742336 127.47658119 296.38790751 127.49028015 298.04831696 C127.50793572 300.31494735 127.50092594 302.5802169 127.48774719 304.84684753 C127.49013555 306.11498385 127.4925239 307.38312017 127.49498463 308.68968487 C126.90954963 312.60490611 125.80337287 314.2506769 123 317 C120.09078944 317.96973685 118.1074134 318.1595556 115.07299805 318.22460938 C114.07153244 318.24712769 113.07006683 318.269646 112.03825378 318.29284668 C107.46348774 318.36391895 102.88888061 318.42134411 98.3137207 318.45996094 C95.90140968 318.48659657 93.48921318 318.52755241 91.07739258 318.58300781 C87.59670051 318.66208738 84.11817707 318.69525857 80.63671875 318.71875 C79.56153488 318.75174194 78.48635101 318.78473389 77.37858582 318.81872559 C70.15584766 318.79944221 70.15584766 318.79944221 66.96679688 316.59373474 C63.7102942 313.09358796 62.24900133 310.15446087 62.4140625 305.28515625 C62.43339844 304.27001953 62.45273437 303.25488281 62.47265625 302.20898438 C62.52292969 301.17064453 62.57320313 300.13230469 62.625 299.0625 C62.65207031 297.99708984 62.67914063 296.93167969 62.70703125 295.83398438 C62.77734836 293.22053177 62.87569562 290.61134825 63 288 C62.30519531 288.52207031 61.61039062 289.04414063 60.89453125 289.58203125 C38.75270261 305.60609228 14.00495997 315.45202485 -12.95092773 319.67211914 C-14.60186886 319.93629332 -16.24436982 320.2529207 -17.8828125 320.5859375 C-57.30400297 325.82233623 -100.30275508 313.14374033 -131.84765625 289.48046875 C-135.65906373 286.53167331 -139.24958435 283.36447907 -142.76953125 280.07421875 C-144.81160319 278.17519913 -146.91451582 276.40162345 -149.0625 274.625 C-153.14049606 271.07213824 -156.44605419 267.02154044 -159.79296875 262.78515625 C-161.13217395 261.09515039 -162.50238214 259.42832377 -163.92578125 257.80859375 C-175.85387017 244.00362128 -183.36654888 227.07613744 -189.28857422 210.00268555 C-189.82266118 208.49921425 -190.41978232 207.01789733 -191.046875 205.55078125 C-202.67512397 174.43091824 -200.49094035 132.45099717 -188 102 C-187.7537085 101.38769531 -187.50741699 100.77539062 -187.25366211 100.14453125 C-178.72423894 79.27356054 -166.97068411 61.79975695 -152 45 C-151.09314453 43.98099609 -151.09314453 43.98099609 -150.16796875 42.94140625 C-129.05225046 20.64962264 -98.68898121 6.24994512 -69 0 C-68.31728027 -0.15098145 -67.63456055 -0.30196289 -66.93115234 -0.45751953 C-45.19223 -5.12773529 -21.70525594 -4.60481687 0 0 Z " fill="#FCFCFC" transform="translate(292,90)"/>
<path d="M0 0 C17.70593113 12.82338649 30.22004084 28.25535962 37.578125 48.8671875 C37.93283875 49.84212662 38.28755249 50.81706573 38.65301514 51.82154846 C42.58704042 64.32741835 42.08414799 76.8364064 41.96875 89.83203125 C41.9612758 92.3216557 41.95558845 94.8112861 41.95159912 97.30091858 C41.93643577 103.806149 41.89723505 110.31101367 41.8527832 116.81610107 C41.81162861 123.47306024 41.79354526 130.13005625 41.7734375 136.78710938 C41.73073104 149.81395677 41.66337917 162.84055254 41.578125 175.8671875 C36.43766086 175.2118166 32.43686513 174.15091376 27.7265625 171.9609375 C27.1046402 171.67617554 26.4827179 171.39141357 25.84194946 171.09802246 C23.87494569 170.19626157 21.91373717 169.28275183 19.953125 168.3671875 C17.98480907 167.45298194 16.01534911 166.54155837 14.0428772 165.63635254 C12.25795601 164.81656156 10.47724053 163.98763169 8.69677734 163.15820312 C5.90735981 162.00347947 3.57553675 161.16359964 0.578125 160.8671875 C-1.80524159 161.97942524 -3.84578258 163.09569099 -6.046875 164.4921875 C-7.30286305 165.24264526 -8.56069463 165.99002585 -9.8203125 166.734375 C-10.74408691 167.28496582 -10.74408691 167.28496582 -11.68652344 167.84667969 C-32.52138545 180.09903242 -58.49967425 180.62846818 -81.52734375 175.125 C-106.54817921 168.23741314 -127.5429676 151.6219403 -140.42236328 129.11914062 C-144.68385103 121.37098108 -148.08720079 113.39815343 -150.421875 104.8671875 C-150.59847656 104.25762207 -150.77507812 103.64805664 -150.95703125 103.02001953 C-152.81905031 95.86288379 -152.80654049 88.72676969 -152.796875 81.3671875 C-152.79666351 80.70277649 -152.79645203 80.03836548 -152.79623413 79.3538208 C-152.7106791 52.4197986 -142.77630267 29.8974374 -124.234375 10.3046875 C-111.09377825 -2.43227318 -94.19107144 -11.09980387 -76.421875 -15.1328125 C-75.66527588 -15.30723877 -74.90867676 -15.48166504 -74.12915039 -15.66137695 C-48.63654142 -21.20756415 -21.45764402 -14.45499972 0 0 Z " fill="#F17524" transform="translate(312.421875,168.1328125)"/>
</svg>
