<svg xmlns="http://www.w3.org/2000/svg" xmlns:xlink="http://www.w3.org/1999/xlink" width="400" zoomAndPan="magnify" viewBox="0 0 300 67.499998" height="90" preserveAspectRatio="xMidYMid meet" version="1.0"><defs><clipPath id="1d50d7c4e7"><path d="M 55.429688 18.785156 L 298.894531 18.785156 L 298.894531 47.890625 L 55.429688 47.890625 Z M 55.429688 18.785156 " clip-rule="nonzero"/></clipPath><clipPath id="e11a92e9fb"><path d="M 2.605469 11.671875 L 46 11.671875 L 46 55.007812 L 2.605469 55.007812 Z M 2.605469 11.671875 " clip-rule="nonzero"/></clipPath><clipPath id="4f8197a720"><path d="M 24.273438 55.074219 C 36.238281 55.074219 45.941406 45.375 45.941406 33.40625 C 45.941406 21.4375 36.238281 11.738281 24.273438 11.738281 C 12.304688 11.738281 2.605469 21.4375 2.605469 33.40625 C 2.605469 45.375 12.304688 55.074219 24.273438 55.074219 Z M 22.671875 20.4375 L 25.378906 20.4375 L 25.378906 32.46875 L 37.414062 32.46875 L 37.414062 35.179688 L 22.671875 35.179688 Z M 14.601562 21.027344 L 17.308594 21.027344 L 17.308594 40.371094 L 36.652344 40.371094 L 36.652344 43.078125 L 14.601562 43.078125 Z M 14.601562 21.027344 " clip-rule="nonzero"/></clipPath></defs><g clip-path="url(#1d50d7c4e7)"><path fill="#ffffff" d="M 88.503906 47.273438 L 85.015625 40.90625 L 63.070312 40.90625 L 59.613281 47.273438 L 55.570312 47.273438 L 71.734375 19.542969 L 76.355469 19.542969 L 92.542969 47.273438 Z M 64.8125 38.03125 L 83.300781 38.03125 L 74.054688 21.839844 Z M 108.703125 47.667969 C 107.046875 47.667969 105.667969 47.550781 104.558594 47.324219 C 103.464844 47.09375 102.570312 46.859375 101.863281 46.613281 C 101.175781 46.347656 100.648438 45.933594 100.28125 45.371094 C 99.929688 44.824219 99.65625 44.394531 99.460938 44.074219 L 99.460938 47.273438 L 96.003906 47.273438 L 96.003906 19.542969 L 99.460938 19.542969 L 99.460938 28.441406 C 99.621094 28.179688 99.882812 27.90625 100.253906 27.625 C 100.625 27.324219 101.160156 27.042969 101.863281 26.78125 C 102.570312 26.53125 103.476562 26.320312 104.585938 26.144531 C 105.695312 25.96875 107.066406 25.878906 108.703125 25.878906 C 111.027344 25.878906 112.992188 26.058594 114.59375 26.410156 C 116.210938 26.761719 117.527344 27.359375 118.527344 28.203125 C 119.550781 29.050781 120.289062 30.179688 120.746094 31.585938 C 121.203125 32.996094 121.433594 34.761719 121.433594 36.894531 C 121.433594 38.988281 121.203125 40.730469 120.746094 42.121094 C 120.289062 43.511719 119.550781 44.613281 118.527344 45.421875 C 117.527344 46.25 116.210938 46.832031 114.59375 47.164062 C 112.992188 47.5 111.027344 47.667969 108.703125 47.667969 Z M 108.703125 44.949219 C 110.058594 44.949219 111.230469 44.90625 112.21875 44.816406 C 113.183594 44.746094 114.011719 44.597656 114.699219 44.367188 C 115.386719 44.15625 115.9375 43.855469 116.363281 43.46875 C 116.804688 43.082031 117.136719 42.589844 117.367188 41.988281 C 117.59375 41.40625 117.753906 40.695312 117.839844 39.851562 C 117.914062 39.023438 117.949219 38.039062 117.949219 36.894531 C 117.949219 35.765625 117.914062 34.78125 117.839844 33.933594 C 117.753906 33.089844 117.59375 32.378906 117.367188 31.796875 C 117.136719 31.199219 116.804688 30.707031 116.363281 30.316406 C 115.9375 29.914062 115.386719 29.605469 114.699219 29.390625 C 114.011719 29.164062 113.183594 29.003906 112.21875 28.917969 C 111.230469 28.828125 110.058594 28.785156 108.703125 28.785156 C 107.558594 28.785156 106.53125 28.820312 105.613281 28.890625 C 104.714844 28.945312 103.921875 29.070312 103.238281 29.261719 C 102.550781 29.4375 101.96875 29.710938 101.496094 30.078125 C 101.019531 30.433594 100.632812 30.914062 100.332031 31.53125 C 100.03125 32.132812 99.8125 32.871094 99.675781 33.75 C 99.53125 34.648438 99.460938 35.714844 99.460938 36.945312 C 99.460938 38.179688 99.53125 39.234375 99.675781 40.113281 C 99.8125 40.980469 100.03125 41.707031 100.332031 42.308594 C 100.632812 42.886719 101.019531 43.351562 101.496094 43.707031 C 101.96875 44.074219 102.550781 44.347656 103.238281 44.527344 C 103.921875 44.703125 104.714844 44.816406 105.613281 44.871094 C 106.53125 44.921875 107.558594 44.949219 108.703125 44.949219 Z M 137.597656 47.667969 C 135.289062 47.667969 133.328125 47.507812 131.707031 47.195312 C 130.105469 46.875 128.792969 46.320312 127.769531 45.527344 C 126.769531 44.753906 126.039062 43.707031 125.582031 42.386719 C 125.121094 41.085938 124.894531 39.4375 124.894531 37.449219 C 124.894531 35.179688 125.121094 33.292969 125.582031 31.796875 C 126.039062 30.316406 126.769531 29.136719 127.769531 28.257812 C 128.792969 27.378906 130.105469 26.761719 131.707031 26.410156 C 133.328125 26.058594 135.289062 25.878906 137.597656 25.878906 C 139.25 25.878906 140.675781 26.003906 141.875 26.25 C 143.089844 26.496094 144.125 26.851562 144.988281 27.308594 C 145.851562 27.765625 146.546875 28.320312 147.074219 28.96875 C 147.621094 29.621094 148.042969 30.300781 148.34375 31.003906 C 148.660156 31.726562 148.871094 32.570312 148.976562 33.539062 C 149.101562 34.492188 149.164062 35.503906 149.164062 36.578125 L 148.871094 37.738281 L 128.351562 37.738281 C 128.351562 39.324219 128.511719 40.625 128.828125 41.648438 C 129.144531 42.667969 129.664062 43.40625 130.386719 43.867188 C 131.109375 44.339844 132.058594 44.640625 133.238281 44.761719 C 134.417969 44.886719 135.871094 44.949219 137.597656 44.949219 C 139.179688 44.949219 140.492188 44.90625 141.53125 44.816406 C 142.566406 44.726562 143.398438 44.5625 144.011719 44.3125 C 144.628906 44.050781 145.058594 43.695312 145.308594 43.257812 C 145.550781 42.800781 145.675781 42.210938 145.675781 41.488281 L 149.164062 41.488281 C 149.164062 42.617188 148.960938 43.566406 148.554688 44.339844 C 148.167969 45.132812 147.523438 45.777344 146.628906 46.269531 C 145.730469 46.742188 144.542969 47.09375 143.0625 47.324219 C 141.582031 47.550781 139.761719 47.667969 137.597656 47.667969 Z M 137.597656 28.785156 C 136.433594 28.785156 135.402344 28.804688 134.507812 28.839844 C 133.589844 28.890625 132.796875 29 132.128906 29.15625 C 131.441406 29.332031 130.859375 29.570312 130.386719 29.871094 C 129.894531 30.183594 129.496094 30.546875 129.199219 30.949219 C 128.914062 31.371094 128.707031 31.953125 128.5625 32.695312 C 128.421875 33.453125 128.351562 34.359375 128.351562 35.414062 L 145.675781 35.414062 C 145.675781 34.003906 145.527344 32.90625 145.226562 32.113281 C 144.929688 31.304688 144.453125 30.644531 143.800781 30.132812 C 143.148438 29.621094 142.3125 29.269531 141.292969 29.078125 C 140.273438 28.882812 139.039062 28.785156 137.597656 28.785156 Z M 175.121094 47.273438 L 158.402344 21.839844 L 158.402344 47.273438 L 154.917969 47.273438 L 154.917969 19.542969 L 160.703125 19.542969 L 176.863281 43.8125 L 193.027344 19.542969 L 198.546875 19.542969 L 198.546875 47.273438 L 195.085938 47.273438 L 195.085938 22.238281 L 178.609375 47.273438 Z M 216.453125 47.667969 C 214.144531 47.667969 212.183594 47.507812 210.5625 47.195312 C 208.941406 46.875 207.628906 46.320312 206.625 45.527344 C 205.625 44.753906 204.894531 43.707031 204.4375 42.386719 C 203.976562 41.085938 203.75 39.4375 203.75 37.449219 C 203.75 35.179688 203.976562 33.292969 204.4375 31.796875 C 204.894531 30.316406 205.625 29.136719 206.625 28.257812 C 207.628906 27.378906 208.941406 26.761719 210.5625 26.410156 C 212.183594 26.058594 214.144531 25.878906 216.453125 25.878906 C 218.105469 25.878906 219.53125 26.003906 220.730469 26.25 C 221.945312 26.496094 222.984375 26.851562 223.84375 27.308594 C 224.707031 27.765625 225.402344 28.320312 225.929688 28.96875 C 226.476562 29.621094 226.898438 30.300781 227.199219 31.003906 C 227.496094 31.726562 227.710938 32.570312 227.832031 33.539062 C 227.9375 34.492188 227.988281 35.503906 227.988281 36.578125 L 227.726562 37.738281 L 207.207031 37.738281 C 207.207031 39.324219 207.367188 40.625 207.683594 41.648438 C 207.984375 42.667969 208.5 43.40625 209.242188 43.867188 C 209.964844 44.339844 210.914062 44.640625 212.09375 44.761719 C 213.273438 44.886719 214.726562 44.949219 216.453125 44.949219 C 218.035156 44.949219 219.347656 44.90625 220.386719 44.816406 C 221.421875 44.726562 222.253906 44.5625 222.867188 44.3125 C 223.484375 44.050781 223.914062 43.695312 224.164062 43.257812 C 224.40625 42.800781 224.53125 42.210938 224.53125 41.488281 L 227.988281 41.488281 C 227.988281 42.617188 227.796875 43.566406 227.410156 44.339844 C 227.023438 45.132812 226.378906 45.777344 225.480469 46.269531 C 224.566406 46.742188 223.378906 47.09375 221.917969 47.324219 C 220.4375 47.550781 218.617188 47.667969 216.453125 47.667969 Z M 216.453125 28.785156 C 215.289062 28.785156 214.257812 28.804688 213.363281 28.839844 C 212.445312 28.890625 211.644531 29 210.957031 29.15625 C 210.289062 29.332031 209.714844 29.570312 209.242188 29.871094 C 208.75 30.183594 208.351562 30.546875 208.054688 30.949219 C 207.769531 31.371094 207.558594 31.953125 207.417969 32.695312 C 207.277344 33.453125 207.207031 34.359375 207.207031 35.414062 L 224.53125 35.414062 C 224.53125 34.003906 224.382812 32.90625 224.082031 32.113281 C 223.785156 31.304688 223.308594 30.644531 222.65625 30.132812 C 222.003906 29.621094 221.167969 29.269531 220.148438 29.078125 C 219.128906 28.882812 217.894531 28.785156 216.453125 28.785156 Z M 244.761719 47.667969 C 242.453125 47.667969 240.492188 47.5 238.871094 47.164062 C 237.25 46.832031 235.941406 46.25 234.933594 45.421875 C 233.933594 44.613281 233.203125 43.511719 232.746094 42.121094 C 232.289062 40.730469 232.058594 38.988281 232.058594 36.894531 C 232.058594 34.726562 232.289062 32.941406 232.746094 31.53125 C 233.203125 30.105469 233.933594 28.980469 234.933594 28.152344 C 235.941406 27.324219 237.25 26.746094 238.871094 26.410156 C 240.492188 26.058594 242.453125 25.878906 244.761719 25.878906 C 246.398438 25.878906 247.769531 25.96875 248.882812 26.144531 C 249.992188 26.320312 250.894531 26.53125 251.601562 26.78125 C 252.304688 27.023438 252.832031 27.296875 253.183594 27.597656 C 253.554688 27.898438 253.828125 28.167969 254.003906 28.417969 L 254.003906 19.542969 L 257.464844 19.542969 L 257.464844 47.273438 L 254.003906 47.273438 L 254.003906 44.183594 C 254.003906 44.183594 253.710938 44.527344 253.128906 45.210938 C 252.621094 45.707031 252.058594 46.101562 251.441406 46.398438 C 250.839844 46.699219 249.992188 46.980469 248.882812 47.246094 C 247.769531 47.527344 246.398438 47.667969 244.761719 47.667969 Z M 244.761719 44.949219 C 245.90625 44.949219 246.933594 44.921875 247.851562 44.871094 C 248.746094 44.816406 249.539062 44.703125 250.226562 44.527344 C 250.914062 44.347656 251.492188 44.074219 251.96875 43.707031 C 252.445312 43.351562 252.832031 42.886719 253.128906 42.308594 C 253.429688 41.707031 253.652344 40.980469 253.792969 40.113281 C 253.929688 39.234375 254.003906 38.179688 254.003906 36.945312 C 254.003906 35.679688 253.929688 34.597656 253.792969 33.699219 C 253.652344 32.800781 253.429688 32.050781 253.128906 31.453125 C 252.832031 30.835938 252.445312 30.351562 251.96875 30 C 251.492188 29.648438 250.914062 29.382812 250.226562 29.207031 C 249.539062 29.015625 248.746094 28.890625 247.851562 28.839844 C 246.933594 28.804688 245.90625 28.785156 244.761719 28.785156 C 243.402344 28.785156 242.242188 28.828125 241.273438 28.917969 C 240.289062 28.988281 239.453125 29.136719 238.765625 29.367188 C 238.078125 29.578125 237.523438 29.878906 237.101562 30.265625 C 236.660156 30.652344 236.328125 31.144531 236.097656 31.746094 C 235.871094 32.34375 235.710938 33.0625 235.621094 33.910156 C 235.550781 34.753906 235.515625 35.75 235.515625 36.894531 C 235.515625 38.039062 235.550781 39.023438 235.621094 39.851562 C 235.710938 40.695312 235.871094 41.40625 236.097656 41.988281 C 236.328125 42.589844 236.660156 43.082031 237.101562 43.46875 C 237.523438 43.855469 238.078125 44.15625 238.765625 44.367188 C 239.453125 44.597656 240.289062 44.746094 241.273438 44.816406 C 242.242188 44.90625 243.402344 44.949219 244.761719 44.949219 Z M 263.246094 47.273438 L 263.246094 26.460938 L 266.707031 26.460938 L 266.707031 47.273438 Z M 266.707031 19.542969 L 266.707031 23.003906 L 263.246094 23.003906 L 263.246094 19.542969 Z M 293.191406 47.273438 L 293.191406 44.417969 C 293.15625 44.5625 292.882812 44.921875 292.375 45.503906 C 292.023438 45.925781 291.539062 46.304688 290.921875 46.636719 C 290.324219 46.972656 289.523438 47.238281 288.519531 47.429688 C 287.515625 47.605469 286.195312 47.695312 284.558594 47.695312 C 282.375 47.695312 280.515625 47.585938 278.988281 47.378906 C 277.433594 47.148438 276.175781 46.804688 275.210938 46.347656 C 274.242188 45.871094 273.527344 45.273438 273.070312 44.550781 C 272.613281 43.832031 272.382812 42.96875 272.382812 41.964844 C 272.382812 40.925781 272.507812 40.042969 272.753906 39.324219 C 273 38.582031 273.359375 37.96875 273.835938 37.472656 C 274.308594 36.980469 274.890625 36.59375 275.578125 36.3125 C 276.246094 36.050781 277.011719 35.84375 277.878906 35.707031 C 278.738281 35.546875 279.679688 35.449219 280.703125 35.414062 C 281.722656 35.378906 282.8125 35.363281 283.976562 35.363281 C 285.613281 35.363281 286.988281 35.433594 288.097656 35.570312 C 289.207031 35.714844 290.113281 35.890625 290.816406 36.101562 C 291.519531 36.3125 292.058594 36.542969 292.425781 36.789062 C 292.777344 37.015625 293.035156 37.238281 293.191406 37.449219 C 293.191406 36.09375 293.132812 34.941406 293.007812 33.988281 C 292.902344 33.039062 292.71875 32.246094 292.453125 31.609375 C 292.207031 30.980469 291.875 30.46875 291.449219 30.078125 C 291.046875 29.710938 290.542969 29.425781 289.945312 29.234375 C 289.347656 29.042969 288.648438 28.917969 287.859375 28.863281 C 287.066406 28.8125 286.160156 28.785156 285.136719 28.785156 C 283.554688 28.785156 282.234375 28.820312 281.175781 28.890625 C 280.136719 28.980469 279.3125 29.136719 278.695312 29.367188 C 278.078125 29.597656 277.648438 29.914062 277.398438 30.316406 C 277.136719 30.707031 277.003906 31.222656 277.003906 31.875 L 273.542969 31.875 C 273.542969 30.785156 273.738281 29.859375 274.125 29.101562 C 274.53125 28.347656 275.179688 27.730469 276.082031 27.253906 C 276.996094 26.78125 278.191406 26.4375 279.671875 26.222656 C 281.152344 25.996094 282.972656 25.878906 285.136719 25.878906 C 287.25 25.878906 289.046875 26.058594 290.523438 26.410156 C 291.988281 26.761719 293.175781 27.378906 294.09375 28.257812 C 294.988281 29.136719 295.640625 30.316406 296.046875 31.796875 C 296.449219 33.292969 296.652344 35.179688 296.652344 37.449219 L 296.652344 47.273438 Z M 285.136719 44.949219 C 286.667969 44.949219 287.949219 44.875 288.96875 44.734375 C 290.007812 44.597656 290.832031 44.375 291.449219 44.074219 C 292.082031 43.796875 292.53125 43.433594 292.796875 42.996094 C 293.0625 42.570312 293.191406 42.070312 293.191406 41.488281 C 293.191406 40.90625 293.035156 40.414062 292.71875 40.007812 C 292.417969 39.605469 291.910156 39.277344 291.1875 39.03125 C 290.480469 38.785156 289.539062 38.601562 288.359375 38.476562 C 287.179688 38.371094 285.71875 38.316406 283.976562 38.316406 C 282.25 38.316406 280.851562 38.347656 279.777344 38.398438 C 278.722656 38.46875 277.902344 38.609375 277.320312 38.820312 C 276.742188 39.03125 276.355469 39.347656 276.160156 39.769531 C 275.96875 40.195312 275.867188 40.765625 275.867188 41.488281 C 275.867188 42.210938 275.976562 42.800781 276.1875 43.257812 C 276.398438 43.695312 276.820312 44.050781 277.453125 44.3125 C 278.105469 44.5625 279.046875 44.726562 280.28125 44.816406 C 281.496094 44.90625 283.113281 44.949219 285.136719 44.949219 Z M 304.734375 43.8125 L 304.734375 47.273438 L 301.273438 47.273438 L 301.273438 43.8125 Z M 322.058594 18.964844 L 332.488281 18.964844 C 334.601562 18.964844 336.386719 19.09375 337.851562 19.355469 C 339.292969 19.605469 340.484375 19.992188 341.414062 20.519531 C 342.363281 21.046875 343.085938 21.710938 343.582031 22.5 C 344.089844 23.292969 344.46875 24.226562 344.714844 25.300781 C 344.945312 26.375 345.074219 27.582031 345.109375 28.917969 C 345.164062 30.273438 345.191406 31.769531 345.191406 33.40625 C 345.191406 35.042969 345.164062 36.53125 345.109375 37.871094 C 345.074219 39.226562 344.945312 40.441406 344.714844 41.515625 C 344.46875 42.589844 344.089844 43.523438 343.582031 44.3125 C 343.085938 45.105469 342.363281 45.757812 341.414062 46.269531 C 340.484375 46.796875 339.292969 47.195312 337.851562 47.457031 C 336.386719 47.722656 334.601562 47.851562 332.488281 47.851562 L 322.058594 47.851562 C 319.945312 47.851562 318.160156 47.722656 316.695312 47.457031 C 315.253906 47.195312 314.0625 46.796875 313.132812 46.269531 C 312.179688 45.757812 311.453125 45.105469 310.9375 44.3125 C 310.429688 43.523438 310.058594 42.589844 309.828125 41.515625 C 309.585938 40.441406 309.441406 39.226562 309.40625 37.871094 C 309.371094 36.53125 309.355469 35.042969 309.355469 33.40625 C 309.355469 31.769531 309.371094 30.273438 309.40625 28.917969 C 309.441406 27.582031 309.585938 26.375 309.828125 25.300781 C 310.058594 24.226562 310.429688 23.292969 310.9375 22.5 C 311.453125 21.710938 312.179688 21.046875 313.132812 20.519531 C 314.0625 19.992188 315.253906 19.605469 316.695312 19.355469 C 318.160156 19.09375 319.945312 18.964844 322.058594 18.964844 Z M 322.058594 44.949219 L 332.488281 44.949219 C 334.019531 44.949219 335.3125 44.90625 336.371094 44.816406 C 337.429688 44.726562 338.289062 44.542969 338.960938 44.261719 C 339.644531 43.996094 340.183594 43.601562 340.570312 43.074219 C 340.941406 42.5625 341.203125 41.875 341.363281 41.015625 C 341.539062 40.167969 341.640625 39.121094 341.675781 37.871094 C 341.695312 36.621094 341.707031 35.132812 341.707031 33.40625 C 341.707031 31.664062 341.695312 30.179688 341.675781 28.945312 C 341.640625 27.695312 341.539062 26.636719 341.363281 25.773438 C 341.203125 24.929688 340.941406 24.242188 340.570312 23.714844 C 340.183594 23.203125 339.652344 22.808594 338.984375 22.527344 C 338.296875 22.261719 337.429688 22.078125 336.371094 21.972656 C 335.332031 21.882812 334.039062 21.839844 332.488281 21.839844 L 322.058594 21.839844 C 320.507812 21.839844 319.214844 21.882812 318.175781 21.972656 C 317.117188 22.078125 316.246094 22.261719 315.5625 22.527344 C 314.875 22.808594 314.347656 23.203125 313.976562 23.714844 C 313.605469 24.242188 313.332031 24.929688 313.15625 25.773438 C 312.980469 26.636719 312.882812 27.695312 312.867188 28.945312 C 312.851562 30.179688 312.839844 31.664062 312.839844 33.40625 C 312.839844 35.132812 312.851562 36.621094 312.867188 37.871094 C 312.902344 39.121094 313.007812 40.167969 313.183594 41.015625 C 313.34375 41.875 313.605469 42.5625 313.976562 43.074219 C 314.347656 43.601562 314.875 43.996094 315.5625 44.261719 C 316.246094 44.542969 317.117188 44.726562 318.175781 44.816406 C 319.214844 44.90625 320.507812 44.949219 322.058594 44.949219 Z M 374.054688 47.273438 L 370.59375 47.273438 L 370.59375 35.707031 C 370.59375 34.417969 370.5 33.335938 370.304688 32.457031 C 370.113281 31.578125 369.722656 30.863281 369.144531 30.316406 C 368.578125 29.769531 367.761719 29.375 366.6875 29.128906 C 365.632812 28.898438 364.242188 28.785156 362.515625 28.785156 C 360.632812 28.785156 359.089844 28.917969 357.890625 29.183594 C 356.699219 29.464844 355.753906 29.859375 355.066406 30.371094 C 354.378906 30.878906 353.914062 31.488281 353.667969 32.191406 C 353.402344 32.894531 353.273438 33.691406 353.273438 34.570312 L 353.273438 47.273438 L 349.8125 47.273438 L 349.8125 26.460938 L 353.273438 26.460938 L 353.273438 29.949219 C 353.519531 29.347656 353.878906 28.839844 354.355469 28.417969 C 354.832031 27.976562 355.359375 27.605469 355.941406 27.308594 C 356.539062 27.007812 357.179688 26.769531 357.867188 26.59375 C 358.535156 26.402344 359.214844 26.25 359.902344 26.144531 C 360.589844 26.039062 361.253906 25.96875 361.90625 25.933594 C 362.558594 25.898438 363.148438 25.878906 363.679688 25.878906 C 365.210938 25.878906 366.527344 25.980469 367.636719 26.171875 C 368.765625 26.367188 369.714844 26.644531 370.488281 27.015625 C 371.265625 27.402344 371.882812 27.871094 372.339844 28.417969 C 372.8125 28.980469 373.183594 29.621094 373.449219 30.34375 C 373.714844 31.066406 373.878906 31.875 373.949219 32.773438 C 374.039062 33.671875 374.082031 34.648438 374.082031 35.707031 Z M 379.863281 47.273438 L 379.863281 19.542969 L 383.324219 19.542969 L 383.324219 47.273438 Z M 390.269531 47.273438 L 390.269531 26.460938 L 393.730469 26.460938 L 393.730469 47.273438 Z M 393.730469 19.542969 L 393.730469 23.003906 L 390.269531 23.003906 L 390.269531 19.542969 Z M 423.757812 47.273438 L 420.296875 47.273438 L 420.296875 35.707031 C 420.296875 34.417969 420.199219 33.335938 420.003906 32.457031 C 419.8125 31.578125 419.425781 30.863281 418.84375 30.316406 C 418.28125 29.769531 417.460938 29.375 416.386719 29.128906 C 415.332031 28.898438 413.941406 28.785156 412.214844 28.785156 C 410.332031 28.785156 408.789062 28.917969 407.59375 29.183594 C 406.398438 29.464844 405.457031 29.859375 404.769531 30.371094 C 404.082031 30.878906 403.617188 31.488281 403.367188 32.191406 C 403.105469 32.894531 402.972656 33.691406 402.972656 34.570312 L 402.972656 47.273438 L 399.511719 47.273438 L 399.511719 26.460938 L 402.972656 26.460938 L 402.972656 29.949219 C 403.21875 29.347656 403.582031 28.839844 404.054688 28.417969 C 404.53125 27.976562 405.058594 27.605469 405.640625 27.308594 C 406.222656 27.007812 406.855469 26.769531 407.542969 26.59375 C 408.226562 26.402344 408.914062 26.25 409.601562 26.144531 C 410.289062 26.039062 410.957031 25.96875 411.605469 25.933594 C 412.257812 25.898438 412.851562 25.878906 413.378906 25.878906 C 414.910156 25.878906 416.226562 25.980469 417.339844 26.171875 C 418.464844 26.367188 419.417969 26.644531 420.191406 27.015625 C 420.964844 27.402344 421.582031 27.871094 422.039062 28.417969 C 422.515625 28.980469 422.886719 29.621094 423.148438 30.34375 C 423.394531 31.066406 423.5625 31.875 423.652344 32.773438 C 423.738281 33.671875 423.78125 34.648438 423.78125 35.707031 Z M 440.523438 47.667969 C 438.21875 47.667969 436.265625 47.507812 434.664062 47.195312 C 433.042969 46.875 431.730469 46.320312 430.726562 45.527344 C 429.707031 44.753906 428.964844 43.707031 428.507812 42.386719 C 428.050781 41.085938 427.820312 39.4375 427.820312 37.449219 C 427.820312 35.179688 428.050781 33.292969 428.507812 31.796875 C 428.964844 30.316406 429.707031 29.136719 430.726562 28.257812 C 431.730469 27.378906 433.042969 26.761719 434.664062 26.410156 C 436.265625 26.058594 438.21875 25.878906 440.523438 25.878906 C 442.179688 25.878906 443.613281 26.003906 444.832031 26.25 C 446.027344 26.496094 447.054688 26.851562 447.921875 27.308594 C 448.78125 27.765625 449.488281 28.320312 450.03125 28.96875 C 450.558594 29.621094 450.972656 30.300781 451.273438 31.003906 C 451.589844 31.726562 451.800781 32.570312 451.90625 33.539062 C 452.03125 34.492188 452.089844 35.503906 452.089844 36.578125 L 451.800781 37.738281 L 431.285156 37.738281 C 431.285156 39.324219 431.441406 40.625 431.757812 41.648438 C 432.074219 42.667969 432.59375 43.40625 433.316406 43.867188 C 434.039062 44.339844 434.988281 44.640625 436.167969 44.761719 C 437.347656 44.886719 438.800781 44.949219 440.523438 44.949219 C 442.125 44.949219 443.449219 44.90625 444.488281 44.816406 C 445.523438 44.726562 446.355469 44.5625 446.96875 44.3125 C 447.585938 44.050781 448.015625 43.695312 448.261719 43.257812 C 448.507812 42.800781 448.632812 42.210938 448.632812 41.488281 L 452.089844 41.488281 C 452.089844 42.617188 451.898438 43.566406 451.511719 44.339844 C 451.105469 45.132812 450.453125 45.777344 449.558594 46.269531 C 448.65625 46.742188 447.46875 47.09375 445.992188 47.324219 C 444.511719 47.550781 442.691406 47.667969 440.523438 47.667969 Z M 440.523438 28.785156 C 439.378906 28.785156 438.351562 28.804688 437.433594 28.839844 C 436.539062 28.890625 435.746094 29 435.058594 29.15625 C 434.375 29.332031 433.792969 29.570312 433.316406 29.871094 C 432.839844 30.183594 432.453125 30.546875 432.152344 30.949219 C 431.855469 31.371094 431.632812 31.953125 431.492188 32.695312 C 431.351562 33.453125 431.285156 34.359375 431.285156 35.414062 L 448.632812 35.414062 C 448.632812 34.003906 448.484375 32.90625 448.183594 32.113281 C 447.867188 31.304688 447.390625 30.644531 446.757812 30.132812 C 446.105469 29.621094 445.269531 29.269531 444.25 29.078125 C 443.210938 28.882812 441.96875 28.785156 440.523438 28.785156 Z M 440.523438 28.785156 " fill-opacity="1" fill-rule="nonzero"/></g><g clip-path="url(#e11a92e9fb)"><g clip-path="url(#4f8197a720)"><path fill="#f59e06" d="M 10.34375 -4.859375 L -13.96875 47.28125 L 38.199219 71.605469 L 62.511719 19.46875 Z M 10.34375 -4.859375 " fill-opacity="1" fill-rule="nonzero"/></g></g></svg>