<svg xmlns="http://www.w3.org/2000/svg" xmlns:xlink="http://www.w3.org/1999/xlink" width="400" zoomAndPan="magnify" viewBox="0 0 300 67.499998" height="90" preserveAspectRatio="xMidYMid meet" version="1.0"><defs><clipPath id="b65238c57a"><path d="M 55.464844 19 L 298.894531 19 L 298.894531 48.113281 L 55.464844 48.113281 Z M 55.464844 19 " clip-rule="nonzero"/></clipPath><clipPath id="371029bca6"><path d="M 2.605469 11.671875 L 46 11.671875 L 46 55.273438 L 2.605469 55.273438 Z M 2.605469 11.671875 " clip-rule="nonzero"/></clipPath><clipPath id="556c5e9cba"><path d="M 24.289062 55.34375 C 36.265625 55.34375 45.972656 45.582031 45.972656 33.539062 C 45.972656 21.5 36.265625 11.742188 24.289062 11.742188 C 12.3125 11.742188 2.605469 21.5 2.605469 33.539062 C 2.605469 45.582031 12.3125 55.34375 24.289062 55.34375 Z M 22.6875 20.488281 L 25.394531 20.488281 L 25.394531 32.597656 L 37.441406 32.597656 L 37.441406 35.320312 L 22.6875 35.320312 Z M 14.609375 21.085938 L 17.320312 21.085938 L 17.320312 40.546875 L 36.675781 40.546875 L 36.675781 43.269531 L 14.609375 43.269531 Z M 14.609375 21.085938 " clip-rule="nonzero"/></clipPath></defs><g clip-path="url(#b65238c57a)"><path fill="#190000" d="M 88.5625 47.488281 L 85.074219 41.085938 L 63.113281 41.085938 L 59.652344 47.488281 L 55.605469 47.488281 L 71.78125 19.59375 L 76.40625 19.59375 L 92.605469 47.488281 Z M 64.859375 38.191406 L 83.355469 38.191406 L 74.105469 21.902344 Z M 108.777344 47.890625 C 107.121094 47.890625 105.738281 47.773438 104.628906 47.542969 C 103.535156 47.3125 102.636719 47.074219 101.933594 46.828125 C 101.246094 46.558594 100.714844 46.144531 100.347656 45.574219 C 99.996094 45.027344 99.722656 44.59375 99.527344 44.273438 L 99.527344 47.488281 L 96.066406 47.488281 L 96.066406 19.59375 L 99.527344 19.59375 L 99.527344 28.546875 C 99.6875 28.28125 99.949219 28.007812 100.320312 27.722656 C 100.691406 27.421875 101.226562 27.136719 101.933594 26.871094 C 102.636719 26.625 103.546875 26.410156 104.65625 26.234375 C 105.765625 26.054688 107.136719 25.96875 108.777344 25.96875 C 111.101562 25.96875 113.066406 26.144531 114.667969 26.5 C 116.289062 26.855469 117.605469 27.457031 118.609375 28.304688 C 119.628906 29.15625 120.371094 30.292969 120.828125 31.707031 C 121.285156 33.125 121.515625 34.90625 121.515625 37.046875 C 121.515625 39.15625 121.285156 40.910156 120.828125 42.308594 C 120.371094 43.707031 119.628906 44.816406 118.609375 45.628906 C 117.605469 46.464844 116.289062 47.046875 114.667969 47.382812 C 113.066406 47.722656 111.101562 47.890625 108.777344 47.890625 Z M 108.777344 45.152344 C 110.132812 45.152344 111.304688 45.109375 112.292969 45.019531 C 113.261719 44.949219 114.089844 44.796875 114.777344 44.566406 C 115.464844 44.355469 116.015625 44.054688 116.441406 43.664062 C 116.882812 43.273438 117.214844 42.777344 117.445312 42.175781 C 117.671875 41.589844 117.832031 40.875 117.921875 40.023438 C 117.992188 39.191406 118.027344 38.199219 118.027344 37.046875 C 118.027344 35.914062 117.992188 34.921875 117.921875 34.070312 C 117.832031 33.222656 117.671875 32.503906 117.445312 31.921875 C 117.214844 31.316406 116.882812 30.824219 116.441406 30.429688 C 116.015625 30.023438 115.464844 29.714844 114.777344 29.5 C 114.089844 29.273438 113.261719 29.113281 112.292969 29.023438 C 111.304688 28.933594 110.132812 28.890625 108.777344 28.890625 C 107.632812 28.890625 106.601562 28.925781 105.683594 28.996094 C 104.785156 29.050781 103.992188 29.175781 103.308594 29.367188 C 102.621094 29.546875 102.039062 29.820312 101.5625 30.191406 C 101.089844 30.546875 100.699219 31.035156 100.402344 31.652344 C 100.101562 32.257812 99.878906 33 99.742188 33.886719 C 99.597656 34.789062 99.527344 35.859375 99.527344 37.101562 C 99.527344 38.339844 99.597656 39.402344 99.742188 40.289062 C 99.878906 41.15625 100.101562 41.894531 100.402344 42.496094 C 100.699219 43.078125 101.089844 43.546875 101.5625 43.902344 C 102.039062 44.273438 102.621094 44.550781 103.308594 44.726562 C 103.992188 44.90625 104.785156 45.019531 105.683594 45.074219 C 106.601562 45.125 107.632812 45.152344 108.777344 45.152344 Z M 137.6875 47.890625 C 135.378906 47.890625 133.414062 47.730469 131.796875 47.410156 C 130.191406 47.089844 128.878906 46.535156 127.855469 45.734375 C 126.851562 44.957031 126.121094 43.902344 125.664062 42.574219 C 125.203125 41.265625 124.976562 39.609375 124.976562 37.605469 C 124.976562 35.320312 125.203125 33.425781 125.664062 31.921875 C 126.121094 30.429688 126.851562 29.242188 127.855469 28.359375 C 128.878906 27.476562 130.191406 26.855469 131.796875 26.5 C 133.414062 26.144531 135.378906 25.96875 137.6875 25.96875 C 139.34375 25.96875 140.769531 26.09375 141.96875 26.339844 C 143.183594 26.585938 144.222656 26.945312 145.085938 27.402344 C 145.949219 27.863281 146.644531 28.421875 147.171875 29.078125 C 147.71875 29.730469 148.140625 30.414062 148.441406 31.121094 C 148.757812 31.847656 148.972656 32.699219 149.078125 33.675781 C 149.203125 34.628906 149.261719 35.648438 149.261719 36.730469 L 148.972656 37.898438 L 128.4375 37.898438 C 128.4375 39.492188 128.597656 40.800781 128.914062 41.832031 C 129.230469 42.859375 129.75 43.601562 130.472656 44.0625 C 131.195312 44.542969 132.144531 44.839844 133.328125 44.964844 C 134.507812 45.089844 135.960938 45.152344 137.6875 45.152344 C 139.273438 45.152344 140.585938 45.109375 141.625 45.019531 C 142.664062 44.929688 143.492188 44.761719 144.109375 44.511719 C 144.726562 44.25 145.15625 43.894531 145.402344 43.449219 C 145.648438 42.992188 145.773438 42.398438 145.773438 41.671875 L 149.261719 41.671875 C 149.261719 42.804688 149.058594 43.761719 148.65625 44.542969 C 148.265625 45.335938 147.625 45.984375 146.726562 46.480469 C 145.828125 46.957031 144.636719 47.3125 143.15625 47.542969 C 141.675781 47.773438 139.855469 47.890625 137.6875 47.890625 Z M 137.6875 28.890625 C 136.523438 28.890625 135.492188 28.910156 134.597656 28.945312 C 133.679688 28.996094 132.886719 29.105469 132.21875 29.261719 C 131.53125 29.441406 130.949219 29.679688 130.472656 29.980469 C 129.980469 30.300781 129.582031 30.664062 129.285156 31.070312 C 129 31.492188 128.792969 32.078125 128.648438 32.824219 C 128.507812 33.585938 128.4375 34.5 128.4375 35.5625 L 145.773438 35.5625 C 145.773438 34.140625 145.625 33.035156 145.324219 32.238281 C 145.023438 31.425781 144.550781 30.757812 143.898438 30.246094 C 143.246094 29.730469 142.40625 29.378906 141.386719 29.183594 C 140.367188 28.988281 139.132812 28.890625 137.6875 28.890625 Z M 175.238281 47.488281 L 158.511719 21.902344 L 158.511719 47.488281 L 155.023438 47.488281 L 155.023438 19.59375 L 160.808594 19.59375 L 176.984375 44.011719 L 193.15625 19.59375 L 198.679688 19.59375 L 198.679688 47.488281 L 195.214844 47.488281 L 195.214844 22.300781 L 178.726562 47.488281 Z M 216.597656 47.890625 C 214.289062 47.890625 212.324219 47.730469 210.703125 47.410156 C 209.082031 47.089844 207.769531 46.535156 206.765625 45.734375 C 205.761719 44.957031 205.03125 43.902344 204.574219 42.574219 C 204.113281 41.265625 203.886719 39.609375 203.886719 37.605469 C 203.886719 35.320312 204.113281 33.425781 204.574219 31.921875 C 205.03125 30.429688 205.761719 29.242188 206.765625 28.359375 C 207.769531 27.476562 209.082031 26.855469 210.703125 26.5 C 212.324219 26.144531 214.289062 25.96875 216.597656 25.96875 C 218.253906 25.96875 219.679688 26.09375 220.875 26.339844 C 222.09375 26.585938 223.132812 26.945312 223.992188 27.402344 C 224.859375 27.863281 225.554688 28.421875 226.082031 29.078125 C 226.628906 29.730469 227.050781 30.414062 227.351562 31.121094 C 227.648438 31.847656 227.863281 32.699219 227.984375 33.675781 C 228.089844 34.628906 228.140625 35.648438 228.140625 36.730469 L 227.878906 37.898438 L 207.347656 37.898438 C 207.347656 39.492188 207.503906 40.800781 207.820312 41.832031 C 208.121094 42.859375 208.640625 43.601562 209.382812 44.0625 C 210.105469 44.542969 211.054688 44.839844 212.234375 44.964844 C 213.414062 45.089844 214.871094 45.152344 216.597656 45.152344 C 218.179688 45.152344 219.492188 45.109375 220.53125 45.019531 C 221.570312 44.929688 222.402344 44.761719 223.019531 44.511719 C 223.632812 44.25 224.066406 43.894531 224.3125 43.449219 C 224.558594 42.992188 224.679688 42.398438 224.679688 41.671875 L 228.140625 41.671875 C 228.140625 42.804688 227.949219 43.761719 227.5625 44.542969 C 227.175781 45.335938 226.53125 45.984375 225.632812 46.480469 C 224.714844 46.957031 223.527344 47.3125 222.066406 47.542969 C 220.585938 47.773438 218.761719 47.890625 216.597656 47.890625 Z M 216.597656 28.890625 C 215.433594 28.890625 214.402344 28.910156 213.503906 28.945312 C 212.585938 28.996094 211.785156 29.105469 211.097656 29.261719 C 210.429688 29.441406 209.855469 29.679688 209.382812 29.980469 C 208.886719 30.300781 208.492188 30.664062 208.191406 31.070312 C 207.910156 31.492188 207.699219 32.078125 207.558594 32.824219 C 207.417969 33.585938 207.347656 34.5 207.347656 35.5625 L 224.679688 35.5625 C 224.679688 34.140625 224.53125 33.035156 224.230469 32.238281 C 223.933594 31.425781 223.457031 30.757812 222.804688 30.246094 C 222.152344 29.730469 221.316406 29.378906 220.296875 29.183594 C 219.273438 28.988281 218.039062 28.890625 216.597656 28.890625 Z M 244.925781 47.890625 C 242.617188 47.890625 240.652344 47.722656 239.03125 47.382812 C 237.410156 47.046875 236.097656 46.464844 235.09375 45.628906 C 234.089844 44.816406 233.359375 43.707031 232.898438 42.308594 C 232.441406 40.910156 232.210938 39.15625 232.210938 37.046875 C 232.210938 34.871094 232.441406 33.070312 232.898438 31.652344 C 233.359375 30.21875 234.089844 29.085938 235.09375 28.253906 C 236.097656 27.421875 237.410156 26.835938 239.03125 26.5 C 240.652344 26.144531 242.617188 25.96875 244.925781 25.96875 C 246.5625 25.96875 247.933594 26.054688 249.046875 26.234375 C 250.15625 26.410156 251.0625 26.625 251.769531 26.871094 C 252.472656 27.117188 253 27.394531 253.351562 27.695312 C 253.726562 27.996094 253.996094 28.269531 254.171875 28.519531 L 254.171875 19.59375 L 257.636719 19.59375 L 257.636719 47.488281 L 254.171875 47.488281 L 254.171875 44.382812 C 254.171875 44.382812 253.882812 44.726562 253.300781 45.417969 C 252.789062 45.914062 252.226562 46.3125 251.609375 46.613281 C 251.007812 46.914062 250.15625 47.199219 249.046875 47.464844 C 247.933594 47.746094 246.5625 47.890625 244.925781 47.890625 Z M 244.925781 45.152344 C 246.070312 45.152344 247.097656 45.125 248.015625 45.074219 C 248.914062 45.019531 249.707031 44.90625 250.394531 44.726562 C 251.082031 44.550781 251.660156 44.273438 252.136719 43.902344 C 252.613281 43.546875 253 43.078125 253.300781 42.496094 C 253.601562 41.894531 253.820312 41.15625 253.960938 40.289062 C 254.101562 39.402344 254.171875 38.339844 254.171875 37.101562 C 254.171875 35.824219 254.101562 34.738281 253.960938 33.832031 C 253.820312 32.929688 253.601562 32.175781 253.300781 31.574219 C 253 30.953125 252.613281 30.464844 252.136719 30.113281 C 251.660156 29.757812 251.082031 29.492188 250.394531 29.316406 C 249.707031 29.121094 248.914062 28.996094 248.015625 28.945312 C 247.097656 28.910156 246.070312 28.890625 244.925781 28.890625 C 243.566406 28.890625 242.402344 28.933594 241.433594 29.023438 C 240.449219 29.09375 239.613281 29.242188 238.925781 29.476562 C 238.238281 29.6875 237.683594 29.988281 237.261719 30.378906 C 236.820312 30.769531 236.484375 31.265625 236.253906 31.867188 C 236.027344 32.46875 235.867188 33.195312 235.78125 34.046875 C 235.710938 34.894531 235.671875 35.894531 235.671875 37.046875 C 235.671875 38.199219 235.710938 39.191406 235.78125 40.023438 C 235.867188 40.875 236.027344 41.589844 236.253906 42.175781 C 236.484375 42.777344 236.820312 43.273438 237.261719 43.664062 C 237.683594 44.054688 238.238281 44.355469 238.925781 44.566406 C 239.613281 44.796875 240.449219 44.949219 241.433594 45.019531 C 242.402344 45.109375 243.566406 45.152344 244.925781 45.152344 Z M 263.421875 47.488281 L 263.421875 26.550781 L 266.882812 26.550781 L 266.882812 47.488281 Z M 266.882812 19.59375 L 266.882812 23.074219 L 263.421875 23.074219 L 263.421875 19.59375 Z M 293.386719 47.488281 L 293.386719 44.621094 C 293.351562 44.761719 293.082031 45.125 292.570312 45.710938 C 292.21875 46.136719 291.734375 46.515625 291.117188 46.851562 C 290.515625 47.1875 289.714844 47.453125 288.710938 47.648438 C 287.707031 47.824219 286.386719 47.914062 284.746094 47.914062 C 282.5625 47.914062 280.703125 47.808594 279.171875 47.597656 C 277.621094 47.367188 276.363281 47.019531 275.394531 46.558594 C 274.425781 46.082031 273.710938 45.480469 273.25 44.753906 C 272.792969 44.027344 272.5625 43.160156 272.5625 42.148438 C 272.5625 41.105469 272.6875 40.21875 272.9375 39.492188 C 273.179688 38.75 273.542969 38.128906 274.019531 37.632812 C 274.492188 37.136719 275.074219 36.746094 275.761719 36.464844 C 276.433594 36.199219 277.199219 35.992188 278.0625 35.851562 C 278.925781 35.691406 279.867188 35.597656 280.890625 35.5625 C 281.910156 35.523438 283.003906 35.507812 284.164062 35.507812 C 285.804688 35.507812 287.179688 35.578125 288.289062 35.71875 C 289.398438 35.859375 290.308594 36.039062 291.007812 36.25 C 291.714844 36.464844 292.253906 36.695312 292.621094 36.941406 C 292.972656 37.171875 293.230469 37.394531 293.386719 37.605469 C 293.386719 36.242188 293.328125 35.082031 293.203125 34.125 C 293.097656 33.167969 292.914062 32.371094 292.648438 31.734375 C 292.402344 31.097656 292.070312 30.582031 291.644531 30.191406 C 291.238281 29.820312 290.738281 29.535156 290.140625 29.34375 C 289.539062 29.148438 288.84375 29.023438 288.050781 28.96875 C 287.257812 28.917969 286.351562 28.890625 285.328125 28.890625 C 283.742188 28.890625 282.421875 28.925781 281.363281 28.996094 C 280.324219 29.085938 279.5 29.242188 278.882812 29.476562 C 278.265625 29.707031 277.832031 30.023438 277.585938 30.429688 C 277.320312 30.824219 277.191406 31.34375 277.191406 32 L 273.726562 32 C 273.726562 30.902344 273.921875 29.972656 274.308594 29.207031 C 274.714844 28.449219 275.367188 27.828125 276.265625 27.351562 C 277.179688 26.871094 278.378906 26.527344 279.859375 26.3125 C 281.339844 26.085938 283.164062 25.96875 285.328125 25.96875 C 287.441406 25.96875 289.238281 26.144531 290.71875 26.5 C 292.183594 26.855469 293.371094 27.476562 294.289062 28.359375 C 295.1875 29.242188 295.839844 30.429688 296.242188 31.921875 C 296.648438 33.425781 296.851562 35.320312 296.851562 37.605469 L 296.851562 47.488281 Z M 285.328125 45.152344 C 286.859375 45.152344 288.140625 45.082031 289.160156 44.9375 C 290.199219 44.796875 291.027344 44.578125 291.644531 44.273438 C 292.277344 43.992188 292.730469 43.628906 292.992188 43.1875 C 293.257812 42.757812 293.386719 42.257812 293.386719 41.671875 C 293.386719 41.085938 293.230469 40.589844 292.914062 40.183594 C 292.613281 39.773438 292.105469 39.449219 291.382812 39.199219 C 290.675781 38.953125 289.734375 38.765625 288.550781 38.640625 C 287.371094 38.535156 285.910156 38.480469 284.164062 38.480469 C 282.4375 38.480469 281.039062 38.507812 279.964844 38.5625 C 278.90625 38.632812 278.089844 38.773438 277.507812 38.988281 C 276.925781 39.199219 276.539062 39.519531 276.34375 39.941406 C 276.152344 40.371094 276.054688 40.945312 276.054688 41.671875 C 276.054688 42.398438 276.160156 42.992188 276.371094 43.449219 C 276.582031 43.894531 277.007812 44.25 277.636719 44.511719 C 278.289062 44.761719 279.234375 44.929688 280.46875 45.019531 C 281.683594 45.109375 283.304688 45.152344 285.328125 45.152344 Z M 304.9375 44.011719 L 304.9375 47.488281 L 301.476562 47.488281 L 301.476562 44.011719 Z M 322.273438 19.007812 L 332.710938 19.007812 C 334.824219 19.007812 336.613281 19.140625 338.074219 19.402344 C 339.519531 19.652344 340.710938 20.042969 341.644531 20.574219 C 342.59375 21.105469 343.316406 21.769531 343.808594 22.566406 C 344.320312 23.363281 344.699219 24.300781 344.945312 25.382812 C 345.175781 26.464844 345.304688 27.679688 345.34375 29.023438 C 345.394531 30.386719 345.421875 31.894531 345.421875 33.539062 C 345.421875 35.1875 345.394531 36.683594 345.34375 38.03125 C 345.304688 39.394531 345.175781 40.617188 344.945312 41.695312 C 344.699219 42.777344 344.320312 43.71875 343.808594 44.511719 C 343.316406 45.3125 342.59375 45.96875 341.644531 46.480469 C 340.710938 47.011719 339.519531 47.410156 338.074219 47.675781 C 336.613281 47.941406 334.824219 48.074219 332.710938 48.074219 L 322.273438 48.074219 C 320.160156 48.074219 318.371094 47.941406 316.90625 47.675781 C 315.464844 47.410156 314.273438 47.011719 313.339844 46.480469 C 312.390625 45.96875 311.660156 45.3125 311.144531 44.511719 C 310.636719 43.71875 310.265625 42.777344 310.035156 41.695312 C 309.792969 40.617188 309.648438 39.394531 309.613281 38.03125 C 309.578125 36.683594 309.5625 35.1875 309.5625 33.539062 C 309.5625 31.894531 309.578125 30.386719 309.613281 29.023438 C 309.648438 27.679688 309.792969 26.464844 310.035156 25.382812 C 310.265625 24.300781 310.636719 23.363281 311.144531 22.566406 C 311.660156 21.769531 312.390625 21.105469 313.339844 20.574219 C 314.273438 20.042969 315.464844 19.652344 316.90625 19.402344 C 318.371094 19.140625 320.160156 19.007812 322.273438 19.007812 Z M 322.273438 45.152344 L 332.710938 45.152344 C 334.242188 45.152344 335.539062 45.109375 336.59375 45.019531 C 337.652344 44.929688 338.515625 44.746094 339.1875 44.460938 C 339.875 44.195312 340.410156 43.796875 340.796875 43.265625 C 341.167969 42.75 341.429688 42.058594 341.589844 41.195312 C 341.765625 40.34375 341.871094 39.289062 341.90625 38.03125 C 341.921875 36.773438 341.933594 35.277344 341.933594 33.539062 C 341.933594 31.785156 341.921875 30.292969 341.90625 29.050781 C 341.871094 27.792969 341.765625 26.730469 341.589844 25.859375 C 341.429688 25.011719 341.167969 24.320312 340.796875 23.789062 C 340.410156 23.277344 339.882812 22.875 339.210938 22.59375 C 338.523438 22.328125 337.652344 22.140625 336.59375 22.035156 C 335.554688 21.945312 334.261719 21.902344 332.710938 21.902344 L 322.273438 21.902344 C 320.722656 21.902344 319.429688 21.945312 318.386719 22.035156 C 317.328125 22.140625 316.457031 22.328125 315.773438 22.59375 C 315.085938 22.875 314.558594 23.277344 314.1875 23.789062 C 313.816406 24.320312 313.542969 25.011719 313.367188 25.859375 C 313.191406 26.730469 313.09375 27.792969 313.074219 29.050781 C 313.058594 30.292969 313.050781 31.785156 313.050781 33.539062 C 313.050781 35.277344 313.058594 36.773438 313.074219 38.03125 C 313.109375 39.289062 313.214844 40.34375 313.394531 41.195312 C 313.554688 42.058594 313.816406 42.75 314.1875 43.265625 C 314.558594 43.796875 315.085938 44.195312 315.773438 44.460938 C 316.457031 44.746094 317.328125 44.929688 318.386719 45.019531 C 319.429688 45.109375 320.722656 45.152344 322.273438 45.152344 Z M 374.304688 47.488281 L 370.84375 47.488281 L 370.84375 35.851562 C 370.84375 34.558594 370.746094 33.46875 370.550781 32.585938 C 370.359375 31.699219 369.972656 30.980469 369.390625 30.429688 C 368.824219 29.882812 368.007812 29.484375 366.933594 29.238281 C 365.875 29.003906 364.484375 28.890625 362.757812 28.890625 C 360.871094 28.890625 359.328125 29.023438 358.132812 29.289062 C 356.9375 29.570312 355.992188 29.972656 355.304688 30.484375 C 354.617188 30.996094 354.152344 31.609375 353.90625 32.316406 C 353.640625 33.027344 353.507812 33.824219 353.507812 34.710938 L 353.507812 47.488281 L 350.046875 47.488281 L 350.046875 26.550781 L 353.507812 26.550781 L 353.507812 30.058594 C 353.753906 29.457031 354.117188 28.945312 354.59375 28.519531 C 355.066406 28.074219 355.597656 27.703125 356.175781 27.402344 C 356.777344 27.101562 357.417969 26.863281 358.105469 26.683594 C 358.777344 26.492188 359.453125 26.339844 360.140625 26.234375 C 360.828125 26.128906 361.496094 26.054688 362.148438 26.019531 C 362.800781 25.984375 363.390625 25.96875 363.921875 25.96875 C 365.453125 25.96875 366.773438 26.066406 367.882812 26.261719 C 369.011719 26.457031 369.964844 26.738281 370.738281 27.113281 C 371.511719 27.5 372.128906 27.96875 372.585938 28.519531 C 373.0625 29.085938 373.433594 29.730469 373.699219 30.460938 C 373.960938 31.183594 374.128906 32 374.199219 32.902344 C 374.289062 33.808594 374.332031 34.789062 374.332031 35.851562 Z M 380.117188 47.488281 L 380.117188 19.59375 L 383.578125 19.59375 L 383.578125 47.488281 Z M 390.53125 47.488281 L 390.53125 26.550781 L 393.992188 26.550781 L 393.992188 47.488281 Z M 393.992188 19.59375 L 393.992188 23.074219 L 390.53125 23.074219 L 390.53125 19.59375 Z M 424.039062 47.488281 L 420.578125 47.488281 L 420.578125 35.851562 C 420.578125 34.558594 420.480469 33.46875 420.285156 32.585938 C 420.09375 31.699219 419.703125 30.980469 419.121094 30.429688 C 418.558594 29.882812 417.738281 29.484375 416.664062 29.238281 C 415.609375 29.003906 414.21875 28.890625 412.492188 28.890625 C 410.605469 28.890625 409.0625 29.023438 407.863281 29.289062 C 406.667969 29.570312 405.726562 29.972656 405.039062 30.484375 C 404.351562 30.996094 403.886719 31.609375 403.636719 32.316406 C 403.375 33.027344 403.242188 33.824219 403.242188 34.710938 L 403.242188 47.488281 L 399.78125 47.488281 L 399.78125 26.550781 L 403.242188 26.550781 L 403.242188 30.058594 C 403.488281 29.457031 403.851562 28.945312 404.324219 28.519531 C 404.800781 28.074219 405.328125 27.703125 405.910156 27.402344 C 406.492188 27.101562 407.128906 26.863281 407.816406 26.683594 C 408.5 26.492188 409.1875 26.339844 409.875 26.234375 C 410.5625 26.128906 411.230469 26.054688 411.882812 26.019531 C 412.535156 25.984375 413.125 25.96875 413.65625 25.96875 C 415.1875 25.96875 416.507812 26.066406 417.617188 26.261719 C 418.746094 26.457031 419.695312 26.738281 420.46875 27.113281 C 421.246094 27.5 421.863281 27.96875 422.320312 28.519531 C 422.796875 29.085938 423.167969 29.730469 423.429688 30.460938 C 423.679688 31.183594 423.84375 32 423.933594 32.902344 C 424.023438 33.808594 424.066406 34.789062 424.066406 35.851562 Z M 440.820312 47.890625 C 438.511719 47.890625 436.558594 47.730469 434.953125 47.410156 C 433.332031 47.089844 432.019531 46.535156 431.015625 45.734375 C 429.992188 44.957031 429.253906 43.902344 428.796875 42.574219 C 428.339844 41.265625 428.109375 39.609375 428.109375 37.605469 C 428.109375 35.320312 428.339844 33.425781 428.796875 31.921875 C 429.253906 30.429688 429.992188 29.242188 431.015625 28.359375 C 432.019531 27.476562 433.332031 26.855469 434.953125 26.5 C 436.558594 26.144531 438.511719 25.96875 440.820312 25.96875 C 442.476562 25.96875 443.910156 26.09375 445.128906 26.339844 C 446.324219 26.585938 447.355469 26.945312 448.21875 27.402344 C 449.082031 27.863281 449.785156 28.421875 450.332031 29.078125 C 450.859375 29.730469 451.277344 30.414062 451.574219 31.121094 C 451.894531 31.847656 452.101562 32.699219 452.207031 33.675781 C 452.332031 34.628906 452.394531 35.648438 452.394531 36.730469 L 452.101562 37.898438 L 431.570312 37.898438 C 431.570312 39.492188 431.726562 40.800781 432.046875 41.832031 C 432.363281 42.859375 432.882812 43.601562 433.605469 44.0625 C 434.328125 44.542969 435.277344 44.839844 436.457031 44.964844 C 437.640625 45.089844 439.09375 45.152344 440.820312 45.152344 C 442.421875 45.152344 443.746094 45.109375 444.785156 45.019531 C 445.824219 44.929688 446.652344 44.761719 447.265625 44.511719 C 447.882812 44.25 448.316406 43.894531 448.5625 43.449219 C 448.808594 42.992188 448.933594 42.398438 448.933594 41.671875 L 452.394531 41.671875 C 452.394531 42.804688 452.199219 43.761719 451.8125 44.542969 C 451.40625 45.335938 450.753906 45.984375 449.859375 46.480469 C 448.957031 46.957031 447.769531 47.3125 446.289062 47.542969 C 444.808594 47.773438 442.984375 47.890625 440.820312 47.890625 Z M 440.820312 28.890625 C 439.675781 28.890625 438.644531 28.910156 437.726562 28.945312 C 436.828125 28.996094 436.035156 29.105469 435.347656 29.261719 C 434.664062 29.441406 434.082031 29.679688 433.605469 29.980469 C 433.128906 30.300781 432.742188 30.664062 432.441406 31.070312 C 432.144531 31.492188 431.921875 32.078125 431.78125 32.824219 C 431.640625 33.585938 431.570312 34.5 431.570312 35.5625 L 448.933594 35.5625 C 448.933594 34.140625 448.78125 33.035156 448.480469 32.238281 C 448.167969 31.425781 447.691406 30.757812 447.054688 30.246094 C 446.402344 29.730469 445.566406 29.378906 444.546875 29.183594 C 443.507812 28.988281 442.261719 28.890625 440.820312 28.890625 Z M 440.820312 28.890625 " fill-opacity="1" fill-rule="nonzero"/></g><g clip-path="url(#371029bca6)"><g clip-path="url(#556c5e9cba)"><path fill="#f59e06" d="M 10.351562 -4.960938 L -13.976562 47.496094 L 38.226562 71.972656 L 62.554688 19.515625 Z M 10.351562 -4.960938 " fill-opacity="1" fill-rule="nonzero"/></g></g></svg>