<svg xmlns="http://www.w3.org/2000/svg" xmlns:xlink="http://www.w3.org/1999/xlink" width="1152" zoomAndPan="magnify" viewBox="0 0 864 225" height="300" preserveAspectRatio="xMidYMid meet" version="1.0"><defs><g/><clipPath id="db3253cf13"><path d="M 0.679688 0 L 836.359375 0 L 836.359375 225 L 0.679688 225 Z M 0.679688 0 " clip-rule="nonzero"/></clipPath><clipPath id="fbee4f4fba"><rect x="0" width="837" y="0" height="225"/></clipPath><clipPath id="47845e030a"><path d="M 707.503906 45.734375 L 738.898438 45.734375 L 738.898438 77.128906 L 707.503906 77.128906 Z M 707.503906 45.734375 " clip-rule="nonzero"/></clipPath><clipPath id="7d02ad0a16"><path d="M 723.203125 45.734375 C 714.53125 45.734375 707.503906 52.761719 707.503906 61.429688 C 707.503906 70.101562 714.53125 77.128906 723.203125 77.128906 C 731.871094 77.128906 738.898438 70.101562 738.898438 61.429688 C 738.898438 52.761719 731.871094 45.734375 723.203125 45.734375 Z M 723.203125 45.734375 " clip-rule="nonzero"/></clipPath><clipPath id="6a62f72efd"><path d="M 0.503906 0.734375 L 31.898438 0.734375 L 31.898438 32.128906 L 0.503906 32.128906 Z M 0.503906 0.734375 " clip-rule="nonzero"/></clipPath><clipPath id="639d5300a7"><path d="M 16.203125 0.734375 C 7.53125 0.734375 0.503906 7.761719 0.503906 16.429688 C 0.503906 25.101562 7.53125 32.128906 16.203125 32.128906 C 24.871094 32.128906 31.898438 25.101562 31.898438 16.429688 C 31.898438 7.761719 24.871094 0.734375 16.203125 0.734375 Z M 16.203125 0.734375 " clip-rule="nonzero"/></clipPath><clipPath id="94c9431ba6"><rect x="0" width="32" y="0" height="33"/></clipPath><clipPath id="4ae6d76202"><rect x="0" width="837" y="0" height="225"/></clipPath></defs><g transform="matrix(1, 0, 0, 1, 7, -0.000000000000008531)"><g clip-path="url(#4ae6d76202)"><g clip-path="url(#db3253cf13)"><g transform="matrix(1, 0, 0, 1, 0, -0.000000000000008531)"><g clip-path="url(#fbee4f4fba)"><g fill="#ff751f" fill-opacity="1"><g transform="translate(0.944152, 185.583607)"><g><path d="M 52.234375 2.5 C 44.265625 2.5 36.800781 0.359375 29.84375 -3.921875 C 22.894531 -8.203125 17.367188 -14.144531 13.265625 -21.75 C 9.171875 -29.351562 7.125 -37.847656 7.125 -47.234375 C 7.125 -56.859375 9.113281 -65.472656 13.09375 -73.078125 C 17.082031 -80.679688 22.460938 -86.59375 29.234375 -90.8125 C 36.003906 -95.03125 43.488281 -97.140625 51.6875 -97.140625 C 62.976562 -97.140625 72.898438 -92.863281 81.453125 -84.3125 L 81.453125 -94.65625 L 105.171875 -94.65625 L 105.171875 0 L 81.453125 0 L 81.453125 -9.984375 C 77.179688 -5.828125 72.695312 -2.707031 68 -0.625 C 63.3125 1.457031 58.054688 2.5 52.234375 2.5 Z M 56.5 -19.25 C 61.375 -19.25 65.800781 -20.40625 69.78125 -22.71875 C 73.757812 -25.039062 76.878906 -28.367188 79.140625 -32.703125 C 81.398438 -37.046875 82.53125 -42.007812 82.53125 -47.59375 C 82.53125 -53.0625 81.398438 -57.90625 79.140625 -62.125 C 76.878906 -66.34375 73.785156 -69.609375 69.859375 -71.921875 C 65.941406 -74.242188 61.488281 -75.40625 56.5 -75.40625 C 51.394531 -75.40625 46.910156 -74.15625 43.046875 -71.65625 C 39.179688 -69.15625 36.207031 -65.796875 34.125 -61.578125 C 32.050781 -57.359375 31.015625 -52.640625 31.015625 -47.421875 C 31.015625 -42.066406 32.113281 -37.25 34.3125 -32.96875 C 36.507812 -28.695312 39.539062 -25.34375 43.40625 -22.90625 C 47.269531 -20.46875 51.632812 -19.25 56.5 -19.25 Z M 56.5 -19.25 "/></g></g></g><g fill="#ff751f" fill-opacity="1"><g transform="translate(103.432862, 185.583607)"><g><path d="M 65.0625 2.5 C 59.238281 2.5 54.007812 1.488281 49.375 -0.53125 C 44.738281 -2.550781 40.222656 -5.703125 35.828125 -9.984375 L 35.828125 0 L 12.125 0 L 12.125 -131.1875 L 35.828125 -131.1875 L 35.828125 -84.3125 C 44.378906 -92.863281 54.300781 -97.140625 65.59375 -97.140625 C 73.675781 -97.140625 81.132812 -95.03125 87.96875 -90.8125 C 94.800781 -86.59375 100.238281 -80.679688 104.28125 -73.078125 C 108.320312 -65.472656 110.34375 -56.859375 110.34375 -47.234375 C 110.34375 -37.847656 108.257812 -29.351562 104.09375 -21.75 C 99.9375 -14.144531 94.378906 -8.203125 87.421875 -3.921875 C 80.472656 0.359375 73.019531 2.5 65.0625 2.5 Z M 60.78125 -19.25 C 65.65625 -19.25 70.050781 -20.46875 73.96875 -22.90625 C 77.894531 -25.34375 80.957031 -28.695312 83.15625 -32.96875 C 85.351562 -37.25 86.453125 -42.066406 86.453125 -47.421875 C 86.453125 -52.640625 85.378906 -57.359375 83.234375 -61.578125 C 81.097656 -65.796875 78.097656 -69.15625 74.234375 -71.65625 C 70.378906 -74.15625 65.894531 -75.40625 60.78125 -75.40625 C 55.789062 -75.40625 51.304688 -74.242188 47.328125 -71.921875 C 43.347656 -69.609375 40.257812 -66.34375 38.0625 -62.125 C 35.863281 -57.90625 34.765625 -53.0625 34.765625 -47.59375 C 34.765625 -42.007812 35.890625 -37.078125 38.140625 -32.796875 C 40.398438 -28.515625 43.519531 -25.1875 47.5 -22.8125 C 51.476562 -20.4375 55.90625 -19.25 60.78125 -19.25 Z M 60.78125 -19.25 "/></g></g></g><g fill="#ff751f" fill-opacity="1"><g transform="translate(206.278054, 185.583607)"><g><path d="M 56.6875 2.5 C 46.820312 2.5 38.144531 0.300781 30.65625 -4.09375 C 23.164062 -8.488281 17.367188 -14.488281 13.265625 -22.09375 C 9.171875 -29.707031 7.125 -38.148438 7.125 -47.421875 C 7.125 -56.085938 9.144531 -64.222656 13.1875 -71.828125 C 17.226562 -79.441406 22.960938 -85.5625 30.390625 -90.1875 C 37.816406 -94.820312 46.460938 -97.140625 56.328125 -97.140625 C 66.191406 -97.140625 74.925781 -94.941406 82.53125 -90.546875 C 90.132812 -86.148438 96.046875 -80.0625 100.265625 -72.28125 C 104.484375 -64.5 106.59375 -55.675781 106.59375 -45.8125 C 106.59375 -43.675781 106.535156 -41.894531 106.421875 -40.46875 L 30.125 -40.46875 C 31.3125 -33.570312 34.3125 -28.191406 39.125 -24.328125 C 43.9375 -20.460938 49.789062 -18.53125 56.6875 -18.53125 C 62.03125 -18.53125 66.691406 -19.363281 70.671875 -21.03125 C 74.648438 -22.695312 78.78125 -25.375 83.0625 -29.0625 L 100 -14.96875 C 89.1875 -3.320312 74.75 2.5 56.6875 2.5 Z M 82.703125 -59.171875 C 81.160156 -64.640625 78.039062 -68.976562 73.34375 -72.1875 C 68.65625 -75.394531 63.101562 -77 56.6875 -77 C 50.738281 -77 45.566406 -75.515625 41.171875 -72.546875 C 36.773438 -69.578125 33.445312 -65.117188 31.1875 -59.171875 Z M 82.703125 -59.171875 "/></g></g></g><g fill="#1e1e1e" fill-opacity="1"><g transform="translate(305.209749, 185.583607)"><g/></g></g><g fill="#ffffff" fill-opacity="1"><g transform="translate(339.967558, 185.583607)"><g><path d="M 26.375 -94.65625 L 26.375 -78.4375 C 30.65625 -84.613281 35.46875 -89.273438 40.8125 -92.421875 C 46.164062 -95.566406 52.171875 -97.140625 58.828125 -97.140625 C 66.078125 -97.140625 72.222656 -95.238281 77.265625 -91.4375 C 82.316406 -87.632812 86.148438 -81.929688 88.765625 -74.328125 C 92.921875 -81.816406 98 -87.488281 104 -91.34375 C 110.007812 -95.207031 116.519531 -97.140625 123.53125 -97.140625 C 130.0625 -97.140625 135.765625 -95.59375 140.640625 -92.5 C 145.515625 -89.414062 149.257812 -84.785156 151.875 -78.609375 C 154.488281 -72.429688 155.796875 -64.945312 155.796875 -56.15625 L 155.796875 0 L 143.671875 0 L 143.671875 -58.640625 C 143.671875 -66.960938 141.796875 -73.5 138.046875 -78.25 C 134.304688 -83 128.691406 -85.375 121.203125 -85.375 C 115.265625 -85.375 109.976562 -83.738281 105.34375 -80.46875 C 100.707031 -77.207031 97.140625 -72.632812 94.640625 -66.75 C 92.148438 -60.875 90.90625 -54.128906 90.90625 -46.515625 L 90.90625 0 L 78.78125 0 L 78.78125 -52.578125 C 78.78125 -63.515625 77.085938 -71.710938 73.703125 -77.171875 C 70.316406 -82.640625 64.582031 -85.375 56.5 -85.375 C 50.320312 -85.375 44.972656 -83.710938 40.453125 -80.390625 C 35.941406 -77.066406 32.46875 -72.34375 30.03125 -66.21875 C 27.59375 -60.101562 26.375 -52.941406 26.375 -44.734375 L 26.375 0 L 14.265625 0 L 14.265625 -94.65625 Z M 26.375 -94.65625 "/></g></g></g><g fill="#ffffff" fill-opacity="1"><g transform="translate(493.611784, 185.583607)"><g><path d="M 58.46875 2.3125 C 48.25 2.3125 39.425781 0.0859375 32 -4.359375 C 24.570312 -8.816406 18.894531 -14.816406 14.96875 -22.359375 C 11.050781 -29.910156 9.09375 -38.144531 9.09375 -47.0625 C 9.09375 -55.726562 11.113281 -63.894531 15.15625 -71.5625 C 19.195312 -79.226562 24.929688 -85.40625 32.359375 -90.09375 C 39.785156 -94.789062 48.25 -97.140625 57.75 -97.140625 C 66.90625 -97.140625 75.222656 -95 82.703125 -90.71875 C 90.191406 -86.445312 96.070312 -80.507812 100.34375 -72.90625 C 104.625 -65.300781 106.765625 -56.742188 106.765625 -47.234375 L 106.765625 -46.34375 L 21.5625 -46.34375 C 21.800781 -39.09375 23.492188 -32.675781 26.640625 -27.09375 C 29.796875 -21.507812 34.101562 -17.171875 39.5625 -14.078125 C 45.03125 -10.992188 51.332031 -9.453125 58.46875 -9.453125 C 66.90625 -9.453125 73.796875 -11.410156 79.140625 -15.328125 C 84.492188 -19.253906 89.25 -24.601562 93.40625 -31.375 L 103.5625 -26.03125 C 98.925781 -17.113281 92.773438 -10.160156 85.109375 -5.171875 C 77.453125 -0.179688 68.570312 2.3125 58.46875 2.3125 Z M 93.40625 -57.046875 C 91.03125 -66.429688 86.660156 -73.5 80.296875 -78.25 C 73.941406 -83 66.488281 -85.375 57.9375 -85.375 C 49.257812 -85.375 41.921875 -83.023438 35.921875 -78.328125 C 29.921875 -73.640625 25.550781 -66.546875 22.8125 -57.046875 Z M 93.40625 -57.046875 "/></g></g></g><g fill="#ffffff" fill-opacity="1"><g transform="translate(594.85279, 185.583607)"><g><path d="M 57.578125 2.3125 C 48.546875 2.3125 40.34375 0.0546875 32.96875 -4.453125 C 25.601562 -8.972656 19.78125 -15.0625 15.5 -22.71875 C 11.226562 -30.382812 9.09375 -38.675781 9.09375 -47.59375 C 9.09375 -56.507812 11.257812 -64.738281 15.59375 -72.28125 C 19.9375 -79.820312 25.847656 -85.847656 33.328125 -90.359375 C 40.816406 -94.878906 49.019531 -97.140625 57.9375 -97.140625 C 65.65625 -97.140625 72.722656 -95.476562 79.140625 -92.15625 C 85.554688 -88.832031 91.082031 -83.898438 95.71875 -77.359375 L 95.71875 -131.1875 L 107.84375 -131.1875 L 107.84375 0 L 95.71875 0 L 95.71875 -16.21875 C 90.613281 -10.039062 84.847656 -5.40625 78.421875 -2.3125 C 72.003906 0.769531 65.054688 2.3125 57.578125 2.3125 Z M 58.828125 -8.734375 C 65.359375 -8.734375 71.503906 -10.304688 77.265625 -13.453125 C 83.035156 -16.609375 87.671875 -21.066406 91.171875 -26.828125 C 94.679688 -32.585938 96.4375 -39.269531 96.4375 -46.875 C 96.4375 -54.125 94.800781 -60.660156 91.53125 -66.484375 C 88.257812 -72.304688 83.769531 -76.910156 78.0625 -80.296875 C 72.363281 -83.679688 66.007812 -85.375 59 -85.375 C 51.988281 -85.375 45.597656 -83.617188 39.828125 -80.109375 C 34.066406 -76.609375 29.582031 -71.945312 26.375 -66.125 C 23.164062 -60.300781 21.5625 -54.003906 21.5625 -47.234375 C 21.5625 -40.460938 23.195312 -34.132812 26.46875 -28.25 C 29.738281 -22.363281 34.222656 -17.640625 39.921875 -14.078125 C 45.628906 -10.515625 51.929688 -8.734375 58.828125 -8.734375 Z M 58.828125 -8.734375 "/></g></g></g><g fill="#ffffff" fill-opacity="1"><g transform="translate(702.332278, 185.583607)"><g><path d="M 19.609375 -113.546875 C 16.867188 -113.546875 14.519531 -114.554688 12.5625 -116.578125 C 10.601562 -118.597656 9.625 -120.972656 9.625 -123.703125 C 9.625 -126.554688 10.601562 -128.929688 12.5625 -130.828125 C 14.519531 -132.734375 16.867188 -133.6875 19.609375 -133.6875 C 22.335938 -133.6875 24.710938 -132.707031 26.734375 -130.75 C 28.753906 -128.789062 29.765625 -126.441406 29.765625 -123.703125 C 29.765625 -120.972656 28.753906 -118.597656 26.734375 -116.578125 C 24.710938 -114.554688 22.335938 -113.546875 19.609375 -113.546875 Z M 13.71875 -94.65625 L 25.84375 -94.65625 L 25.84375 0 L 13.71875 0 Z M 13.71875 -94.65625 "/></g></g></g><g fill="#ffffff" fill-opacity="1"><g transform="translate(727.107361, 185.583607)"><g><path d="M 57.578125 2.3125 C 48.546875 2.3125 40.34375 0.0546875 32.96875 -4.453125 C 25.601562 -8.972656 19.78125 -15.0625 15.5 -22.71875 C 11.226562 -30.382812 9.09375 -38.675781 9.09375 -47.59375 C 9.09375 -56.507812 11.257812 -64.738281 15.59375 -72.28125 C 19.9375 -79.820312 25.847656 -85.847656 33.328125 -90.359375 C 40.816406 -94.878906 49.019531 -97.140625 57.9375 -97.140625 C 65.65625 -97.140625 72.722656 -95.476562 79.140625 -92.15625 C 85.554688 -88.832031 91.082031 -83.898438 95.71875 -77.359375 L 95.71875 -94.65625 L 107.65625 -94.65625 L 107.65625 0 L 95.71875 0 L 95.71875 -16.21875 C 90.613281 -10.039062 84.847656 -5.40625 78.421875 -2.3125 C 72.003906 0.769531 65.054688 2.3125 57.578125 2.3125 Z M 58.828125 -8.734375 C 65.359375 -8.734375 71.535156 -10.304688 77.359375 -13.453125 C 83.179688 -16.609375 87.84375 -21.066406 91.34375 -26.828125 C 94.851562 -32.585938 96.609375 -39.269531 96.609375 -46.875 C 96.609375 -54.125 94.941406 -60.660156 91.609375 -66.484375 C 88.285156 -72.304688 83.769531 -76.910156 78.0625 -80.296875 C 72.363281 -83.679688 66.007812 -85.375 59 -85.375 C 51.988281 -85.375 45.597656 -83.617188 39.828125 -80.109375 C 34.066406 -76.609375 29.582031 -71.945312 26.375 -66.125 C 23.164062 -60.300781 21.5625 -54.003906 21.5625 -47.234375 C 21.5625 -40.460938 23.195312 -34.132812 26.46875 -28.25 C 29.738281 -22.363281 34.222656 -17.640625 39.921875 -14.078125 C 45.628906 -10.515625 51.929688 -8.734375 58.828125 -8.734375 Z M 58.828125 -8.734375 "/></g></g></g></g></g></g><g clip-path="url(#47845e030a)"><g clip-path="url(#7d02ad0a16)"><g transform="matrix(1, 0, 0, 1, 707, 45)"><g clip-path="url(#94c9431ba6)"><g clip-path="url(#6a62f72efd)"><g clip-path="url(#639d5300a7)"><path fill="#ff751f" d="M 0.503906 0.734375 L 31.898438 0.734375 L 31.898438 32.128906 L 0.503906 32.128906 Z M 0.503906 0.734375 " fill-opacity="1" fill-rule="nonzero"/></g></g></g></g></g></g></g></g></svg>